<svg id="图层_1" data-name="图层 1" xmlns="http://www.w3.org/2000/svg" xmlns:xlink="http://www.w3.org/1999/xlink" viewBox="0 0 190.71497 190.71497"><defs><style>.cls-1{fill:#f4d421;}.cls-2{fill:none;stroke:#13ae67;stroke-linecap:round;stroke-miterlimit:10;stroke-width:11px;}.cls-3{fill:url(#未命名的渐变);}.cls-4{fill:url(#未命名的渐变_2);}.cls-5{opacity:0.64;}.cls-6{opacity:0.7;}.cls-7{fill:#13ae67;}</style><linearGradient id="未命名的渐变" x1="131.8042" y1="-577.05655" x2="131.8042" y2="-603.33388" gradientTransform="matrix(1, 0, 0, -1, 0, -472.33005)" gradientUnits="userSpaceOnUse"><stop offset="0" stop-color="#35b9bb"/><stop offset="0.1617" stop-color="#36b7a5"/><stop offset="0.4497" stop-color="#3fb584"/><stop offset="0.6" stop-color="#41b477"/><stop offset="0.7" stop-color="#39b273"/><stop offset="0.8857" stop-color="#2db06d"/><stop offset="1" stop-color="#2db06b"/></linearGradient><linearGradient id="未命名的渐变_2" x1="59.13262" y1="-522.52874" x2="59.13262" y2="-548.80611" xlink:href="#未命名的渐变"/></defs><title>logo_icon-01</title><circle class="cls-1" cx="95.35748" cy="95.35748" r="68.81154"/><path class="cls-2" d="M25.27664,102.24087C42.65446,70.5302,55.11112,64.23266,63.56935,65.06311c7.61241.74586,10.61123,7.12029,32.34888,29.26547,23.98293,24.42891,29.6807,26.18207,34.06361,26.35892,4.05226.16148,17.06255-.6459,32.56419-25.54385"/><circle class="cls-3" cx="131.8042" cy="117.82638" r="13.15639"/><circle class="cls-4" cx="59.13262" cy="63.30156" r="13.15639"/><g class="cls-5"><g class="cls-6"><path class="cls-7" d="M165.45371,91.103c.20761.05382.13071-.58439.16148-.70742C165.26917,90.54168,165.4614,91.26447,165.45371,91.103Z"/><polygon class="cls-7" points="162.047 92.564 162.109 92.302 161.609 92.948 162.047 92.564"/><path class="cls-7" d="M158.87168,92.54859c.29988,1.09957,1.15339-.17686,1.72241.2153l.09226.25375.25375-.88427C160.24807,92.27178,159.3561,92.85616,158.87168,92.54859Z"/><path class="cls-7" d="M157.17235,90.18029c.10765.4306-.36908.36909.39215.13072a1.16258,1.16258,0,0,1-.0692-.10765A1.05326,1.05326,0,0,1,157.17235,90.18029Z"/><path class="cls-7" d="M155.94973,90.44942l.4383-.38447c-.09227-.25375-.48443-.30757-.33833-.49211C155.596,89.78044,155.696,90.03419,155.94973,90.44942Z"/><path class="cls-7" d="M155.53453,91.2491l.23068-.16147C155.71907,90.98,155.65755,90.94152,155.53453,91.2491Z"/><path class="cls-7" d="M156.24194,90.74929l-.48443.33833c.06152.17686.0692.53057.223-.123C155.94206,91.28755,156.042,90.98,156.24194,90.74929Z"/><path class="cls-7" d="M156.51876,90.91077c.24606.23836.569.39215.123.76893C157.48759,91.5336,157.36458,90.757,156.51876,90.91077Z"/><path class="cls-7" d="M158.71021,93.6866l.33063.323.28451-.36909C159.17926,93.825,158.68714,93.34059,158.71021,93.6866Z"/><path class="cls-7" d="M153.20466,89.8804a5.42508,5.42508,0,0,0,.18454.92272l.323-.26913C153.543,90.37252,153.22,90.22642,153.20466,89.8804Z"/><path class="cls-7" d="M153.38152,90.80312l-.48443.39984C153.3277,91.2491,153.41228,91.05687,153.38152,90.80312Z"/><polygon class="cls-7" points="155.45 92.464 156.257 91.626 155.296 92.479 155.45 92.464"/><polygon class="cls-7" points="151.336 89.849 151.613 89.311 151.12 90.126 151.336 89.849"/><path class="cls-7" d="M150.10587,89.94192c.20761-.446-.27682-.76124-.06152-1.03036-.33833.07689-.62283.46135-.87658.80737C149.43689,89.5267,149.7291,89.58052,150.10587,89.94192Z"/><path class="cls-7" d="M148.72948,90.22642a2.7721,2.7721,0,0,0,.4306-.5075A1.46922,1.46922,0,0,0,148.72948,90.22642Z"/><path class="cls-7" d="M152.06666,91.08763a1.03626,1.03626,0,0,0-.38447-.669l.19223.65359C151.92824,91.07993,151.99743,91.07993,152.06666,91.08763Z"/><path class="cls-7" d="M151.88211,91.09531l-.00769-.02306c-.20761-.01538-.35371-.03076-.41521-.03845C151.513,91.04149,151.636,91.06456,151.88211,91.09531Z"/><path class="cls-7" d="M152.11278,91.08763h-.04614C152.082,91.14914,152.09741,91.17221,152.11278,91.08763Z"/><path class="cls-7" d="M154.17352,91.87193c-.2845.36909-.88427.76124-.30757,1.32256C154.07356,92.74082,153.74292,92.42556,154.17352,91.87193Z"/><path class="cls-7" d="M152.35114,91.91038l.51519.15379c-.00769-.17686-.1-.42292.03845-.60746Z"/><polygon class="cls-7" points="152.097 92.118 152.351 91.91 152.159 91.856 152.097 92.118"/><path class="cls-7" d="M149.61376,90.84157a.99524.99524,0,0,1-.74587.3537,2.23464,2.23464,0,0,0,.892.19993C149.806,91.18758,149.929,90.8185,149.61376,90.84157Z"/><path class="cls-7" d="M150.71333,91.02611c-.01538.01538-.03845.02307-.04613.03845C150.698,91.11838,150.721,91.13376,150.71333,91.02611Z"/><path class="cls-7" d="M146.14587,91.18758c.01539.03845.03076.08458.04614.123,0-.03845.00768-.07689.00768-.11534Z"/><path class="cls-7" d="M149.81368,91.51822c.223.123.35372-.03076.48443-.23836a1.56254,1.56254,0,0,1-.53056.11534C149.74447,91.48746,149.7368,91.549,149.81368,91.51822Z"/><path class="cls-7" d="M147.96825,90.534a2.43608,2.43608,0,0,0,.38446.3614C148.23736,90.68778,148.00671,90.35714,147.96825,90.534Z"/><path class="cls-7" d="M150.59029,90.88l.03075-.03076C150.55185,90.71085,150.55955,90.78006,150.59029,90.88Z"/><path class="cls-7" d="M150.59029,90.88a1.4534,1.4534,0,0,0-.2922.39984,1.1293,1.1293,0,0,0,.36908-.223A.61654.61654,0,0,1,150.59029,90.88Z"/><path class="cls-7" d="M145.32312,95.409c.03845-.60745.62284-1.16877,1.13033-.51518.4998-.45367.16917-2.46057-.26143-3.58322-.01538.26913-.01538.51519-.53056.86889.17685.33064,1.138.77662.70741,1.33025-.67666.31527-.55363-.2153-.88426-.53824.27681.76123-.8612,1.10726-.7151,2.2222l.59208-.39215C145.36927,94.97072,145.154,95.25523,145.32312,95.409Z"/><path class="cls-7" d="M147.16856,91.37213l.20762-.07689c-.23837-.10765-.41522-.346-.73048-.82276a1.04307,1.04307,0,0,0-.446.7228l1.03806.08458Z"/><path class="cls-7" d="M148.322,91.29523c-.16148.66128-.669.94579-.3614,1.66089.61515-.04613.4306-.55363.79968-.83813-.99961.16148.2845-.36909-.4306-.74586a1.47037,1.47037,0,0,1,.53825-.17686,2.49594,2.49594,0,0,1-.51518-.29988c.00769.01538.01538.02307.02307.03845h.00768v.00769c.04614.08458.05383.13072.00769.08458,0,.00769-.01538.00769-.02307.01538a1.34546,1.34546,0,0,1-.04613.25375c-.2922-.13841-.04614-.17686.04613-.25375a.53023.53023,0,0,1,.01538-.1v-.00769l-.99961.3614A1.68843,1.68843,0,0,0,148.322,91.29523Z"/><path class="cls-7" d="M153.33539,94.617a.30424.30424,0,0,1-.03076-.15378C153.24311,94.54781,153.21235,94.60164,153.33539,94.617Z"/><path class="cls-7" d="M152.92784,94.21717c.0692-.09227.13072-.3537.36909-.29219.20761.19993,0,.31527.00768.53825.1461-.17686.4998-.47674.05383-.79969l-.0692.09228c-.39985-.23068-.92271-1.05344-.84583-1.14571A5.93276,5.93276,0,0,0,152.92784,94.21717Z"/><path class="cls-7" d="M150.598,92.92537l-.83045.323.42291.5767-.02306-.346C150.63645,93.6174,150.53648,93.19449,150.598,92.92537Z"/><polygon class="cls-7" points="146.053 90.864 146.161 90.165 145.684 91.149 146.053 90.864"/><polygon class="cls-7" points="144.969 90.949 145.007 90.334 144.723 90.703 144.969 90.949"/><path class="cls-7" d="M83.95483,98.50011l-.24606.16917A.71989.71989,0,0,0,83.95483,98.50011Z"/><path class="cls-7" d="M85.72336,98.53856l.04614-.29989C85.68492,98.40015,85.65416,98.52318,85.72336,98.53856Z"/><path class="cls-7" d="M118.41827,91.01073c-.35371-.569-.75355-1.45328-.70741-.76893l.10765.669A.515.515,0,0,1,118.41827,91.01073Z"/><path class="cls-7" d="M100.22538,95.00147c.03076.06152.0692.13072.10765.19993.08459-.23068.16917-.43829.23837-.63822C100.47144,94.70159,100.34842,94.8477,100.22538,95.00147Z"/><path class="cls-7" d="M99.97933,97.76194l-.46905-.4306A1.617,1.617,0,0,0,99.97933,97.76194Z"/><path class="cls-7" d="M74.28938,99.20752l-.28451.67666C74.45085,99.87649,74.25093,99.53816,74.28938,99.20752Z"/><path class="cls-7" d="M133.89682,91.18758a1.53564,1.53564,0,0,0-.76893-.39984C133.497,91.17221,133.79687,91.7489,133.89682,91.18758Z"/><path class="cls-7" d="M84.65455,91.41826a.48817.48817,0,0,0-.20761.40754A.42271.42271,0,0,0,84.65455,91.41826Z"/><path class="cls-7" d="M132.24364,90.78774a1.488,1.488,0,0,0,.16148.15378,1.17152,1.17152,0,0,1,.7228-.16147C132.85876,90.50323,132.54352,90.32638,132.24364,90.78774Z"/><path class="cls-7" d="M39.22617,98.65389c-.02307-.03076-.05383-.04613-.0769-.07689C39.14158,98.66159,39.18,98.66927,39.22617,98.65389Z"/><path class="cls-7" d="M29.01478,91.91807a1.96206,1.96206,0,0,1,.42291-.05383A.52466.52466,0,0,0,29.01478,91.91807Z"/><path class="cls-7" d="M141.73222,93.29445a.64558.64558,0,0,0-.09226.323A.86108.86108,0,0,1,141.73222,93.29445Z"/><path class="cls-7" d="M129.95992,94.94h-.02307C130.006,95.07068,129.99067,95.04761,129.95992,94.94Z"/><path class="cls-7" d="M140.96329,90.95691a.94177.94177,0,0,0-.29219-.19993A1.128,1.128,0,0,0,140.96329,90.95691Z"/><path class="cls-7" d="M140.91717,90.64165a1.42887,1.42887,0,0,0,.19992.06151C141.14783,90.59551,141.12476,90.5263,140.91717,90.64165Z"/><path class="cls-7" d="M140.302,90.68778a.85369.85369,0,0,1,.36909.0692c-.04614-.04614-.06152-.08459-.05384-.10765A1.70973,1.70973,0,0,1,140.302,90.68778Z"/><path class="cls-7" d="M58.01113,96.86229c-.01538-.02307-.03076-.03845-.04614-.06152C57.73431,97.07759,57.83427,97.03914,58.01113,96.86229Z"/><path class="cls-7" d="M112.44368,97.94648c.00769-.00769.01538-.02306.02307-.03075-.00769-.0077-.02307-.01538-.03076-.02307Z"/><path class="cls-7" d="M111.62093,98.43859c.3537-.83044.55363-.73048.81506-.55363l-.26912-1.92232Z"/><path class="cls-7" d="M79.718,98.69235l.5767.59976c-.69973.98423-1.19953.6459-.66128,1.49173.08458-2.09149,2.24527-.2153,2.32986-2.2991l.38446.43829c-.10765-.02307-.123.1-.23837.08458.73818.99961.55364-1.5071,1.50711-1.21491.33064.16147.569.46136.33833.70741l.73817-.51518c.2153.03845.16147.39984-.05382.3614l1.13032-.16917-.00769.06152a7.37123,7.37123,0,0,1,.70742-1.05344c.2845.29989-.1461.223-.0692.48443l.62283-.5075a.70523.70523,0,0,1-.69973.99192c.58439,2.0838.52287-.52287,1.78392.692l-.59208.26143c.38447,1.18416.84582.75356,1.5148,1.49173-.16148-.38447-1.33794-1.86081-.66129-2.38368.19224.16147.446.23068.80738-.18454,0,.74586.3614.56132.80738.51518l-.03076.98423c.48443-.28451.446-.78431.73049-1.23029.53824.1.65359.8612.77662,1.49941.8612.15379-.59977-1.22259.42291-1.40714.7228.37677,1.2226-.02307,2.0838-.61515.49981.33833-.08458.59977.09227.88427l.446-.7843c.10765.01537.0769.26143.05383.38446.37677-.30757.03076-.98423.62283-1.25335.16148-1.0842,1.21491,1.584,1.94539.3537.17686.27682-.08458.59977-.03075.98423a5.73067,5.73067,0,0,0,1.68395-1.67626l.69973.64589c-.51518-.73817.1461-1.61475.7228-2.32985a8.66359,8.66359,0,0,0-.446-.81507l.92271-.53056c.10765.16148.01538.49981-.13071.90734.06151-.08458.123-.16148.16916-.23837.33064.3614.16148.93041-.07689,1.484-.11534-.19224-.223-.39984-.33064-.60746a4.472,4.472,0,0,0-.39216,1.83774.68208.68208,0,0,1,.29988-.26912.7084.7084,0,0,0-.0692.40753c.03076.1.13072-.11534.27682-.3614l.20761,1.09957.05382-.43829,1.20722.68435c.86121-1.10726,1.61475-2.7297,2.98345-3.18337-.33833.80738-.0692,1.31487-.09227,2.26834-.37678-1.00729-1.06113.4306-1.76855.223.36909.10765.2922.56132.19224.71511l1.26873-.915c-.03076.77662.26913.58439.59977.90734-.24606-1.53786.94578-1.02268,1.461-1.49941.03076.51518-.09227,1.04574-.72279.92271.692,1.16109.892-1.807,1.57631-.82276-.15379.01538-.23837-.0692-.29988.19993.36139-.46136,1.238-.09228,1.03036.3537l-.15379.0077c1.015.18454,3.09879.00769,3.25258-1.2995.00769.16917-.13072,1.57631-.19223,1.83774l1.81467-4.39828c-.16147,1.12264.45367,3.79852-.39215,4.43673a.76508.76508,0,0,0,1.05343-.04614c-.16916-.16147-.41522-1.62244-.18454-1.73009.62283,1.25335.4306.669,1.19185,1.73778-.24606-.23836.03075-1.99921.42291-1.94539a15.24444,15.24444,0,0,1-.10765,1.92233l.97654-1.73009c-.24606.31526-.04613,1.46865.17686,1.95308-.1-.33833.84582.03076,1.09957-.13841l-.41523-.39984c1.09957.26143,1.0842-2.42982,2.18376-2.33755-.13072.35371-.32295,2.19914.23068,2.41444.25375-.88427,1.13033-4.25987,2.09149-4.94422l.18455.5075.73818-.5767a34.42031,34.42031,0,0,1-2.46827,5.22873c.41523.39984.11535.59976.73049.55363.2153.47674-.33834.72279-.51519.74586l1.43791.30757c-.06152-1.038,1.09956-1.038,1.04574-1.89925l-1.56093,1.06881c-.06151-1.03037.89965-2.93731,1.92233-2.75277.26143.41522-.19223,1.83774-.16917,2.18376.13072-.35371.96885-.67666,1.06113-.4306l-.4306.55363c.569.39215.92271-1.3687,1.60706-.38447.23837.0692.69973,1.33025.74587.7228a17.237,17.237,0,0,1-.19992-5.71315,8.54454,8.54454,0,0,1,1.49941,1.707c.38446.92272-.58438,2.20683-.25375,2.99883a1.68746,1.68746,0,0,1,.31526-.74586c.24607.23836-.1.87658.4306.74586.09227-1.04574,1.09188.09228.25375-.88427.52287-.29988.56132.2153,1.17646.16917a3.41666,3.41666,0,0,1,1.0765-2.60668,1.82623,1.82623,0,0,0,.1461.76893c1.0765.09228,1.65319.569,2.65281.5767.09226.25375.57669.56132.36908,1.015.1461-.18454.27681-.53825.58438-.569.59977.90734-.692.13841-.23068,1.23029.03845-.60746.79968-.83813,1.238-1.2226-.1384-.93809-1.015-.17685-1.461.19993a3.93436,3.93436,0,0,1,1.81467-3.26026c.83045-.323.3614.83813.5075.65358,1.56861.223,1.33024-2.26834,2.62974-1.33025.51518.83045.02306,1.64551.1384,2.23759-.67666.31527-1.04575-.52287-1.49941-.49211l.569.39215c-.2153.27682-.669.48443-.915.24606.4306.74586,2.64512.1461,3.85234.83045.2153-.27682.58438-.56133.40753-.89965l-.38447.11534c-.35371-.669.7151-.92271.23837-1.23029.51518-.469,1.08419-1.20722,1.807-.83044l.1384.94578c-.01538-.27681-.469-.56132-.67666-.27681.29988-.41522,1.10726,1.27643,1.43789.03845l-.50749-.65359c.51518-.47674,1.15339-1.47635,1.79161-1.17646-.2922-.93041-.1461.10765-.59977-.98423.39215,1.35332-1.63782-.05383-.99961,1.36869-.46905-1.261-.80738-.53825-1.41483-1.61475.01538.30757.2153.59207-.323.43829a1.87607,1.87607,0,0,1-.11533.27681c-.01538-.00769-.02307-.01537-.03845-.02306a.135.135,0,0,0,.03075.03845c-.02307.04613-.02307.05382.00769.01537a1.11309,1.11309,0,0,1,.27681.47674c-.26913.71511-1.12264.692-1.40714,1.06112-.31527-.1461.13072-.3537-.03845-.692l-.4306.55364c-.04613-.692-.84583-1.14571-.09227-1.55324l-.67666-.03076a.99917.99917,0,0,0-1.28411-.25375c-.31527-.1461-.80738.76124-.53056.223l-1.06113.4306-.00769-.16916c-1.04574-.08459-2.153,1.1457-3.34485-.1a1.51628,1.51628,0,0,1-1.30718.19223l-.11533-.59976c-.45367.2076-1.35331-.59977-1.55324.02306-.48443-1.60706-2.19146-.3537-2.98345-.63821l-.03076.77662a3.58611,3.58611,0,0,0-1.75316.49212l.03845.692c-.58438.569-1.50711-.49211-2.42982-.42291.06152-.26143.29988-.19223.46136-.03845-1.10726-1.56093-2.32985,1.13033-3.33715,0-.24606.25375-.4306.16148-.60746-.00769a.07842.07842,0,0,0,.06152-.03845.37575.37575,0,0,0-.1-.00769c-.10765-.11534-.223-.25375-.346-.36909a1.48811,1.48811,0,0,0,.29219.36909,1.92024,1.92024,0,0,0-.76893.26912l-.123-.73817a.36217.36217,0,0,0-.06921.02307c-.2845-.27682-.223.35371-.07689.90734a1.63619,1.63619,0,0,0-.37677.446c-.23068-1.19185-.75356.39984-1.06112-.86889-.19224.62283-1.4379.469-1.59169,1.77623-.00769-.16917-.09227-.25375.06152-.26144-.323-.1461-.63822-.29988-.92272.0692l-.1384-.93809-.69973,1.26873c-.42292-.57669-.59977-.90733-.17686-1.63013-1.015,1.11495-.82275.42291-1.69164,1.52248l.03845-.60745c-.30758.02306-.79969.83813-.99192.33833-.692-1.1534-3.42174-.16148-5.19028-1.238.346,1.79161-.82276-.79969-.892.58439-.1-.42291-.35371-.66128-.06152-1.03036-.90734.41522-1.361-.669-1.98384.4998-.1-.42291.19223-.62283.1-.87658-.0692.09228-.28451.36909-.38447.11534-.09227-.25375.13072-.3537.27682-.53825-.92271.0692-1.015,1.37639-1.08419,2.60668-.469-.58439-.69973-.49981-1.03806.30757-.16147-.39984-.43829-.82276.13841-.96116-.32295-.06152-1.97615-.58439-2.00691.39215-.1-.246-.45367-.0692-.53825.03845a4.92773,4.92773,0,0,0-1.49941-.05382l.19992.16147c-.2845,1.18415-.59207.26143-1.16877.40753l.01538-.123c-1.31487-.85351-.569.40753-1.8685-.569l.0692.73817c-.123,1.584-1.1534-.9381-1.907-.33064l.26913.42291c-.41523.54594-1.1534-2.16069-1.56093-2.35292-.09228-.13841.1461-.223.26912-.32295-1.08419-.9381-.1384.96885-.94578,1.19184-.1461-.52287.19223-1.32256-.35371-1.42252-.26913-.42291-1.57631,1.69165-2.31448.692.16147.39984.32295.79969-.04614,1.10726-.57669.1461-1.55323-1.51479-2.06842-.25375a.58264.58264,0,0,1-.1-.31526c-.43829.323-1.42252.54594-1.69164,1.23029-.40753-2.54516-2.72971,1.238-2.722-1.10726l-1.35332.123.03845-.23837c-.86121-.15378-1.16878.40753-1.46866.96885-.19993-.16147-.05383-.37677-.03845-.4998-1.261-.47674-1.38408-.37678-2.4452.79969L74.6354,92.318c-.28451.446-1.82237-1.19185-3.06034-.30758a.646.646,0,0,1,.13841-.33833c-1.39177.892-3.32947-2.11455-3.837.66128l-.915.68435c1.18415.2153-.17685,1.20722.31526,1.66858-.46905.16147-1.20722-.83813-.63052-.97654l.09227.13841c.20761-1.44559-1.47635-.51519-1.44559-1.49942-2.33755.06921-4.61358-.73048-6.805-.792l.25375,1.12263-.76124-.06151c-.19992-.26143-.26913-.87658.27681-.83045-.2845-.63821-.915.53057-.9304.77662-1.06882-.45366.41522-1.31487.09227-1.33793l-.446.08458.1.13072c-.3614.46135-.39215.94578-1.04575.892-.41522-.223-.2153-.692-.37677-.73817,0-.0769-.05383-.11534-.25375-.03076l-.96116-.09228.38446.892c-.42291.43829-.90734-.04614-.46136.96116-.65359-1.55324-3.5909-.55363-3.99074-1.03806a1.95246,1.95246,0,0,1-1.91464.56133c.18455.18454.2922,1.18415-.33833,1.06112.23068-2.06074-1.15339-.892-1.66089-2.376.45367.98423-1.7916.246-1.0765,1.63782-.52287-.16917-.03076-.76893-.4306-1.25336-1.25335.79969-2.76046-.51518-4.306-.24606-.02306.26913.23837.68435-.1,1.0842L39.726,91.40289c-.30757.13071-.28451,1.56092-.83814.62283.0769.23068.19993.569-.00769.65359-3.02958-1.31487-6.18988,1.0765-9.2656-1.39945.41522.52287.13841.57669-.17686.59207.20762.123-.00769.669.03845,1.038l-1.2918-1.015c-.23837,1.015-1.38408.0692-1.51479,1.038l.40753-.17686c-.54594,1.14571.76124,2.55285.67666,4.02151.60745-1.30718,1.59937,1.93,2.599.06152.223.29988-.18454.47673-.0692.81506.25374-.63052.56132-.76124,1.12264-.47674l-.06152.15379c1.59169-.15379,2.26834.469,4.05226.88427l-.13072-.73049c.38447.1.46136.32295.64591.5075.43829-1.10726-1.07651-.06151-.67666-1.27643.50749,1.484,2.70663.02307,3.045,1.707.59208.00769-.16916-.84582.41522-.83045l.15379.45367.1461-.58439c.38446.1.58438.669.59976,1.05344-.09227-.04614-.26912.10765-.36908.13841.4998.53824,1.41483-.18455,1.584-.0077l-.569-.2845c1.60707-.42292,3.57553.16916,5.12877-.75356l-.11534-.346c1.18415-.63821.95347.37677,2.253.08458l-.04613.08458a1.06917,1.06917,0,0,1,.96885-.47673c-.33064.39984.62283.7843.18454,1.23028,1.28411-.68435.63821-.53825,1.484-1.81467l.19992.569c.29219-.51518.31526-.7843.96885-.93809-.53056.49211.41522.86889-.18455,1.51479,1.3687,1.24567,2.03-1.261,2.65281.56132.63052-1.57631-1.18415-.87658-.83044-1.21491-.2922-.51518.51518-1.17646.94578-1.02268.43829.03845.74586,2.02229,1.83774,1.99153-.10765-.00769-.11534.11534-.223.10765.40753.39984.80738-.54594,1.30718.10765.28451-.95347.65359.05382.73818-1.16109l-1.0073.28451c.569-.31527,1.10725-1.74547,2.04535-1.05344a2.151,2.151,0,0,1-.54594.74587c.27682.36139.53056-.23837.81507.13071-.08459,1.21491-1.2226.26144-1.83775,1.19185.2922.51518,1.16109-.88427.85352.43829.43829-1.67627,1.08419.2153,1.82236-1.06882l-.04614.73048c.11534-.11534.3614-.46135.5767-.43828l-.39215.94578c.59976-.80738,1.16108.70742,1.73778.26913-1.20722.02306-.26913-.87658-.78431-1.41483,1.49172-.97654.8612,1.90695,2.52978,1.56092-.223.1-.84582-.43829-.49211-.77662a2.04849,2.04849,0,0,1,.9304.81507c1.10726-.15379-.16917-.75356.29988-1.19953.37678.892.54594-.3614,1.03037-.6459v.73817c1.261.47674.33064-1.54555,1.46866-.96885l-.47674,1.03036.59208-.26912-.123.84582c.6459-.62283.84582-.46136,1.47634-.23068-.14609-.52287.08458-1.34563.63821-1.3687.38447.43829-.21529.70742.5767.59977-.17685.46136-.37677,1.04574-.7151.3614-.03845.23836-.17686.469-.2153.70741.40753.5075,1.03036.11534,1.31487.10765a.50493.50493,0,0,1-.30758-.17686l1.14571-1.03036c.17685.27682.03845.49981-.10765.7228.23068-.0769.39215-.42292.73817-.48443-.09227.59977-.0692,1.2226-.55363,1.5071l1.09188-.669c.06921.26144.56132.7228.41522.94579.60746.35371,1.484-1.16877,2.29142-.69973a.53467.53467,0,0,1,.29988-.31526c.75356.1384,1.42252.87658,2.32217.04613l.50749,1.08419c.69973-.24605-.68434-1.361.47674-1.76854.82276-.346.30758.92272.59977,1.2226.40753-.54594,1.12263-1.6532,1.88387-.77662C80.14862,98.76923,79.9487,98.60776,79.718,98.69235Zm8.64277-.48443c-.16916.15379-.4998.63822-.62283.19993C87.93019,97.562,88.07629,97.96186,88.36079,98.20792Zm13.141-1.78391c-.123.24605-.31526.123-.53825-.15379A.48376.48376,0,0,1,101.50181,96.424Zm36.60107-5.16722c-.00768.01538-.01538.02307-.01538.03845-.36909-.29219-.23836-.17686.01537-.03845Zm.77662.323a.31959.31959,0,0,0,.03845-.30757c-.05383.18454-.23068.19992-.42292.1461C138.54885,91.6105,138.64881,91.7489,138.8795,91.57974Zm-83.31357.29219.15379.19224C55.3737,92.27946,55.47366,92.08723,55.56593,91.87193Z"/><path class="cls-7" d="M100.01008,97.439a1.36243,1.36243,0,0,1-.0692-.39984A.30688.30688,0,0,0,100.01008,97.439Z"/><path class="cls-7" d="M74.3432,99.07681c-.00769-.00769-.01537,0-.02306-.00769a.42662.42662,0,0,0-.02307.13072Z"/><path class="cls-7" d="M126.86113,97.86959a.84615.84615,0,0,1-.30757-.38446.3413.3413,0,0,0,.29381.38293Z"/><path class="cls-7" d="M142.99327,90.3187l-.4998.19223c.23836-.03845.32295.123.446.24606C142.93175,90.58013,142.8395,90.33407,142.99327,90.3187Z"/><path class="cls-7" d="M147.307,94.90921c.0692-.09228.15378-.00769.223-.1l-.02307-.346C147.207,94.4863,146.984,94.76311,147.307,94.90921Z"/><path class="cls-7" d="M143.45462,92.787c.03845.62283.35371.41523.69973.29989a.16571.16571,0,0,1-.06152,0C144.19281,92.21027,143.82371,92.49477,143.45462,92.787Z"/><path class="cls-7" d="M144.23125,93.06378a.57862.57862,0,0,1,.32294-.01538C144.59264,92.69468,144.42348,92.9715,144.23125,93.06378Z"/><path class="cls-7" d="M139.86373,91.16452c.16148.16148.1-.79969.19992-.54594C140.24819,89.82658,138.96408,91.58743,139.86373,91.16452Z"/><polygon class="cls-7" points="143.731 94.84 143.608 94.071 143.416 94.694 143.731 94.84"/><path class="cls-7" d="M140.98636,94.27868l.55363.2153a.27474.27474,0,0,1,.1461-.26143C141.34776,94.20179,140.971,94.048,140.98636,94.27868Z"/><path class="cls-7" d="M141.69379,94.22486a.47419.47419,0,0,0,.446-.13072A1.145,1.145,0,0,0,141.69379,94.22486Z"/><polygon class="cls-7" points="142.978 95.07 142.808 94.909 142.416 94.855 142.978 95.07"/><path class="cls-7" d="M135.00409,94.12489l-.60745.223c-.06152.26144.1.42292.33063.32295C134.87338,94.4863,135.09636,94.37865,135.00409,94.12489Z"/><path class="cls-7" d="M136.84183,96.23945a1.37353,1.37353,0,0,1-.26913-.58439l-.01538.95347Z"/><path class="cls-7" d="M135.0733,96.46244c-.06152.26144-.88427.76124-.11534.69973C135.01946,96.90073,135.62692,96.67774,135.0733,96.46244Z"/><polygon class="cls-7" points="125.923 95.255 126.076 95.239 126.053 93.671 125.923 95.255"/><path class="cls-7" d="M117.86463,98.99991c.72279.37678.16916-.96885.82275-.4998.16917-.36909-.53056-.38447-.36139-.69973C117.8954,98.19253,117.66472,97.96954,117.86463,98.99991Z"/><path class="cls-7" d="M118.326,97.80038a1.71423,1.71423,0,0,0,.223-.23837A.74572.74572,0,0,0,118.326,97.80038Z"/><polygon class="cls-7" points="27.323 91.08 26.861 90.749 27.154 91.279 27.323 91.08"/><path class="cls-7" d="M26.43117,92.241l-.10765-.99961-.27681.89965C26.15436,92.10262,26.35428,92.018,26.43117,92.241Z"/><path class="cls-7" d="M89.64491,100.22251l.03844-.23837c-.0692-.26143-.17685-.27681-.39984-.32295Z"/><polygon class="cls-7" points="83.37 99.476 83.478 99.492 83.278 98.592 83.37 99.476"/><path class="cls-7" d="M78.10327,100.62236c.2153.03845.46905-.16148.68435-.123C78.31857,100.6608,78.04945,99.49972,78.10327,100.62236Z"/></g><g class="cls-6"><path class="cls-7" d="M97.656,168.51733c-.05382.20761.58439.13072.70742.16148C98.21733,168.33277,97.49454,168.525,97.656,168.51733Z"/><polygon class="cls-7" points="96.195 165.103 96.456 165.164 95.818 164.657 96.195 165.103"/><path class="cls-7" d="M96.21043,161.91221c-1.09958.29988.17685,1.1534-.2153,1.72241l-.25375.09227.88427.25374C96.48724,163.29629,95.90285,162.39663,96.21043,161.91221Z"/><path class="cls-7" d="M98.58642,160.21287c-.4306.10765-.36909-.36908-.13072.39985a1.16258,1.16258,0,0,1,.10765-.0692A.88473.88473,0,0,1,98.58642,160.21287Z"/><path class="cls-7" d="M98.30961,158.98259l.38447.446c.25375-.09227.30757-.48443.49211-.33833C98.97857,158.62889,98.72482,158.72884,98.30961,158.98259Z"/><path class="cls-7" d="M97.50992,158.56737l.16147.23068C97.779,158.75191,97.81749,158.6904,97.50992,158.56737Z"/><path class="cls-7" d="M98.00972,159.28247l-.33833-.48443c-.17686.06152-.53057.0692.123.223C97.47147,158.97489,97.78674,159.07487,98.00972,159.28247Z"/><path class="cls-7" d="M97.84824,159.55159c-.23836.24606-.39215.569-.76893.123C97.22541,160.52815,98.002,160.4051,97.84824,159.55159Z"/><path class="cls-7" d="M95.07241,161.75073l-.323.33064.36909.2845C94.934,162.22748,95.41843,161.72768,95.07241,161.75073Z"/><path class="cls-7" d="M98.87861,156.22982a5.424,5.424,0,0,0-.92271.18455l.26912.33063C98.3865,156.56815,98.53259,156.25289,98.87861,156.22982Z"/><path class="cls-7" d="M97.95589,156.40668l-.39984-.49211C97.50992,156.35284,97.70215,156.43742,97.95589,156.40668Z"/><polygon class="cls-7" points="96.295 158.482 97.133 159.29 96.279 158.329 96.295 158.482"/><polygon class="cls-7" points="98.909 154.361 99.447 154.638 98.632 154.146 98.909 154.361"/><path class="cls-7" d="M98.8171,153.12334c.446.20761.76124-.28451,1.03036-.06152-.07689-.33833-.46136-.62283-.80738-.88427C99.23232,152.44668,99.1785,152.73887,98.8171,153.12334Z"/><path class="cls-7" d="M98.53259,151.73926a3.108,3.108,0,0,0,.5075.43829A1.47833,1.47833,0,0,0,98.53259,151.73926Z"/><path class="cls-7" d="M97.67139,155.08412a1.0362,1.0362,0,0,0,.669-.38446l-.65358.19223C97.67909,154.9534,97.67909,155.02259,97.67139,155.08412Z"/><path class="cls-7" d="M97.6637,154.89956l.02307-.00768c.01538-.20762.03076-.35372.03845-.41522C97.71753,154.53049,97.69446,154.6612,97.6637,154.89956Z"/><path class="cls-7" d="M97.67139,155.13794v-.04613C97.60988,155.10719,97.58681,155.11487,97.67139,155.13794Z"/><path class="cls-7" d="M96.88708,157.20635c-.36909-.2845-.76124-.88426-1.32256-.30757C96.01819,157.1064,96.33346,156.76808,96.88708,157.20635Z"/><path class="cls-7" d="M96.84864,155.37631l-.15379.52286c.17686-.00768.42292-.10765.60746.03845Z"/><polygon class="cls-7" points="96.641 155.122 96.848 155.376 96.902 155.184 96.641 155.122"/><path class="cls-7" d="M97.91745,152.63122a.99526.99526,0,0,1-.35371-.74586,2.26978,2.26978,0,0,0-.19992.89964C97.57143,152.81578,97.94052,152.9465,97.91745,152.63122Z"/><path class="cls-7" d="M97.74059,153.7308c-.01537-.01539-.02306-.03845-.03844-.04614C97.64064,153.71543,97.62525,153.73849,97.74059,153.7308Z"/><path class="cls-7" d="M97.57143,149.148c-.03845.01538-.08458.03075-.123.04613.03845,0,.07689.00769.11534.00769Z"/><path class="cls-7" d="M97.24079,152.82345c-.13072.223.03076.35372.23836.48443a1.56278,1.56278,0,0,1-.11534-.53056C97.27155,152.76194,97.21,152.75426,97.24079,152.82345Z"/><path class="cls-7" d="M98.225,150.978a2.43512,2.43512,0,0,0-.36139.38446C98.07123,151.24714,98.40187,151.01647,98.225,150.978Z"/><path class="cls-7" d="M97.879,153.60778l.03076.03075C98.04817,153.56933,97.979,153.577,97.879,153.60778Z"/><path class="cls-7" d="M97.879,153.60778a1.64681,1.64681,0,0,0-.39984-.29989,1.2586,1.2586,0,0,0,.2153.36909C97.74829,153.65391,97.81749,153.63084,97.879,153.60778Z"/><path class="cls-7" d="M93.35,148.32522c.60746.03845,1.16878.63053.51519,1.13033.45366.4998,2.46057.16916,3.58321-.26144-.26913-.01538-.51518-.01538-.86889-.53056-.33064.17685-.77662,1.138-1.33025.70741-.31527-.67666.2153-.55363.53825-.88426-.76124.2845-1.10727-.86889-2.22221-.7151l.39215.59977C93.78829,148.37135,93.51148,148.15605,93.35,148.32522Z"/><path class="cls-7" d="M97.38689,150.17066l.07689.20761c.10765-.23836.346-.41521.82275-.73048a1.04308,1.04308,0,0,0-.72279-.446l-.08459,1.03806Z"/><path class="cls-7" d="M97.46378,151.33173c-.66128-.16148-.94579-.669-1.66089-.3614.04613.62283.55363.4306.83813.80738-.16148-.99961.36909.2845.74586-.4383a1.56741,1.56741,0,0,1,.17686.53825,2.49594,2.49594,0,0,1,.29988-.51518c-.01538.00768-.02307.01538-.03845.02307v.00768h-.00769c-.08458.04613-.13072.05383-.08458.00769-.00769,0-.00769-.01539-.01538-.02307a1.34626,1.34626,0,0,1-.25375-.04613c.13841-.2922.17686-.04614.25375.04613a.52862.52862,0,0,1,.1.01538h.00769l-.3614-.99961A1.695,1.695,0,0,0,97.46378,151.33173Z"/><path class="cls-7" d="M94.142,156.36054a.30426.30426,0,0,1,.15379-.03076C94.21121,156.26827,94.15738,156.23752,94.142,156.36054Z"/><path class="cls-7" d="M94.54185,155.953c.09227.0692.3614.13072.29219.36909-.19992.20761-.31526,0-.53825.00768.17686.1461.47674.4998.79969.05383l-.09227-.0692c.23068-.39985,1.05343-.92271,1.1457-.85351A6.24053,6.24053,0,0,0,94.54185,155.953Z"/><path class="cls-7" d="M95.83365,153.61545l-.323-.83813-.5767.42291.346-.02306C95.14161,153.65391,95.57221,153.55393,95.83365,153.61545Z"/><polygon class="cls-7" points="97.894 149.055 98.594 149.163 97.61 148.686 97.894 149.055"/><polygon class="cls-7" points="97.817 147.971 98.425 148.01 98.055 147.725 97.817 147.971"/><path class="cls-7" d="M90.25891,86.77238l-.16917-.24606A.71989.71989,0,0,0,90.25891,86.77238Z"/><path class="cls-7" d="M90.22046,88.5486l.29988.04614C90.35887,88.51015,90.23585,88.47171,90.22046,88.5486Z"/><path class="cls-7" d="M97.74829,121.33578c.569-.35371,1.45327-.75356.76893-.71511l-.669.10765A.52442.52442,0,0,1,97.74829,121.33578Z"/><path class="cls-7" d="M93.76523,103.09676c-.06152.03076-.13072.0692-.19993.10765.23069.08458.43829.16917.63822.23837Q93.98437,103.28129,93.76523,103.09676Z"/><path class="cls-7" d="M90.99708,102.843l.4306-.46905A1.61717,1.61717,0,0,0,90.99708,102.843Z"/><path class="cls-7" d="M89.55149,77.07617l-.67666-.28451C88.88252,77.23764,89.22086,77.03772,89.55149,77.07617Z"/><path class="cls-7" d="M97.57143,136.86048a1.53568,1.53568,0,0,0,.39984-.76893C97.58681,136.46832,97.01011,136.7682,97.57143,136.86048Z"/><path class="cls-7" d="M97.34075,87.4721a.46915.46915,0,0,0-.40753-.20761A.40938.40938,0,0,0,97.34075,87.4721Z"/><path class="cls-7" d="M97.97128,135.20726a1.49091,1.49091,0,0,0-.15379.16148,1.18315,1.18315,0,0,1,.16148.73049C98.25579,135.82241,98.43263,135.50716,97.97128,135.20726Z"/><path class="cls-7" d="M90.10512,41.913c.03076-.02307.04613-.05383.07689-.07689C90.09744,41.82073,90.08974,41.85917,90.10512,41.913Z"/><path class="cls-7" d="M96.841,31.66316a2.03047,2.03047,0,0,1,.05382.42291C96.94091,32.00918,96.93322,31.88615,96.841,31.66316Z"/><path class="cls-7" d="M95.46456,144.72663a.64563.64563,0,0,0-.323-.09227A.73715.73715,0,0,1,95.46456,144.72663Z"/><path class="cls-7" d="M93.81905,132.91586v-.02307C93.68834,132.962,93.7114,132.94662,93.81905,132.91586Z"/><path class="cls-7" d="M97.80211,143.95a.942.942,0,0,0,.19992-.2922A1.1274,1.1274,0,0,0,97.80211,143.95Z"/><path class="cls-7" d="M98.11738,143.90387a1.43025,1.43025,0,0,0-.06152.19992C98.16351,144.13454,98.23271,144.11147,98.11738,143.90387Z"/><path class="cls-7" d="M98.07123,143.28873a.85352.85352,0,0,1-.0692.36908c.04614-.04614.08459-.06152.10765-.05383A1.70984,1.70984,0,0,1,98.07123,143.28873Z"/><path class="cls-7" d="M91.89673,60.75178a.42793.42793,0,0,1,.06151-.04613C91.68143,60.46728,91.72756,60.57493,91.89673,60.75178Z"/><path class="cls-7" d="M90.82022,115.34581c.00769.00769.02307.01538.03076.02307.00769-.00769.01538-.02307.02307-.03076Z"/><path class="cls-7" d="M90.32042,114.52306c.83044.3537.73048.55363.55363.81506l1.92232-.27681Z"/><path class="cls-7" d="M90.06668,82.52019l-.59977.57669c-.98423-.69972-.6459-1.20721-1.49172-.66128,2.09149.08459.21529,2.253,2.29909,2.33755l-.43829.38447c.02307-.10765-.09995-.13072-.08458-.23837-.99961.74586,1.5071.55363,1.21491,1.5071-.16147.33064-.46135.569-.70741.33833l.51518.74587c-.03845.2153-.39984.16147-.3614-.05383l.16917,1.138-.06152-.00769a7.372,7.372,0,0,1,1.05344.70741c-.29988.2922-.223-.14609-.48443-.0692l.5075.63053a.70523.70523,0,0,1-.99192-.69973c-2.0838.58439.52287.52287-.692,1.79161l-.26143-.59208c-1.18415.38447-.75356.84582-1.49173,1.5148.38447-.16148,1.86081-1.34563,2.38368-.66129-.16147.19224-.23068.446.18455.81507-.74587,0-.56133.3614-.51519.81506l-.98422-.03076c.2845.48443.7843.446,1.23028.73049-.1.53824-.8612.65359-1.49941.7843-.15378.86889,1.2226-.59976,1.40714.4306-.37677.7228.02307,1.23029.61515,2.09149-.33833.5075-.59976-.08458-.88427.09228l.78431.446c-.01538.10765-.26144.07689-.38447.05382.30757.37677.98423.03076,1.25335.62283,1.0842.16148-1.584,1.21491-.3537,1.95309-.27682.18454-.59977-.08459-.98423-.03076a5.84706,5.84706,0,0,0,1.67627,1.69164l-.6459.70742c.73817-.51519,1.61475.14609,2.32985.72279a8.66005,8.66005,0,0,0,.81507-.446l.53056.92271c-.16147.11534-.4998.01538-.90734-.13071.08459.06151.16148.123.23837.16916-.3614.33064-.9304.16148-1.484-.07689.19223-.11534.39984-.223.60745-.33064a4.4718,4.4718,0,0,0-1.83774-.39215.68191.68191,0,0,1,.26912.29988.70822.70822,0,0,0-.40753-.0692c-.1.03075.11534.13071.3614.27681l-1.09957.20761.43829.05383-.68435,1.20722c1.10726.86888,2.72971,1.61475,3.18337,2.99113-.80738-.33833-1.31487-.07689-2.26834-.09227,1.0073-.37678-.4306-1.06112-.223-1.77623-.10765.36909-.56132.29219-.71511.19223l.915,1.26874c-.77662-.03076-.58439.26912-.90733.59976,1.53786-.25374,1.02267.94579,1.49941,1.461-.51519.03076-1.04575-.09227-.92272-.72279-1.16108.692,1.807.89964.82276,1.584-.01538-.15378.0692-.23837-.19223-.29988.46135.3614.09227,1.238-.35371,1.03036l-.00769-.15378c-.18454,1.02268-.00769,3.10648,1.29949,3.26026-.16916.00769-1.57631-.13072-1.83774-.19223l4.39828,1.82236c-1.12264-.16147-3.79852.45367-4.43672-.39215a.76512.76512,0,0,0,.04613,1.05343c.16147-.16916,1.62244-.41522,1.73009-.18454-1.25335.62283-.669.4306-1.73778,1.19953.23836-.24606,1.99922.03076,1.94539.42292a15.246,15.246,0,0,1-1.92232-.10765l1.73009.97653c-.31527-.246-1.46866-.04613-1.95308.17686.33833-.1-.03076.84582.1384,1.10726l.39984-.41522c-.26143,1.10726,2.42983,1.09188,2.33755,2.18376-.3614-.13072-2.19914-.33064-2.41444.23068.88427.25375,4.25987,1.13033,4.94422,2.09917l-.50749.18455.57669.74586a33.72558,33.72558,0,0,1-5.22872-2.47595c-.39984.41522-.59977.11534-.55363.73048-.47674.2153-.7228-.33833-.74587-.52287l-.30757,1.4379c1.038-.06152,1.038,1.09956,1.89926,1.04574l-1.06881-1.56861c1.03036-.06152,2.93731.90733,2.75277,1.92233-.41523.26143-1.83775-.19224-2.18376-.16917.35371.13072.67665.96885.4306,1.06113l-.55363-.4306c-.39216.569,1.36869.93041.38446,1.60706-.0692.23837-1.33025.70741-.72279.74586a17.237,17.237,0,0,1,5.71315-.19991,8.77883,8.77883,0,0,1-1.707,1.5071c-.92271.38447-2.20683-.58438-2.99883-.25374a1.68729,1.68729,0,0,1,.74586.31526c-.23836.24606-.87657-.1-.74586.4383,1.04575.09226-.09227,1.09187.88427.25374.29988.52287-.2153.56132-.16916,1.17647a3.39589,3.39589,0,0,1,2.60667,1.08419,1.82623,1.82623,0,0,0-.76893.1461c-.09227,1.0765-.569,1.66089-.5767,2.6605-.25375.09227-.56132.5767-1.015.36908.18455.1461.53825.27682.569.58439-.90734.59976-.13841-.692-1.23029-.23068.60746.03844.83813.79968,1.2226,1.24566.9381-.1384.17686-1.02268-.19992-1.461a3.923,3.923,0,0,1,3.26026,1.82236c.323.83813-.83813.36139-.65359.50749-.223,1.56862,2.26834,1.338,1.33025,2.63743-.83045.51518-1.64551.02306-2.23759.1384-.31526-.68435.52287-1.04575.49212-1.50711l-.39216.569c-.27682-.2153-.48442-.669-.24606-.915-.74586.43059-.1461,2.6528-.83044,3.86.27681.2153.56132.58438.89964.40753l-.11534-.38447c.669-.35371.92272.7228,1.23029.23837.469.51518,1.20722,1.09188.83045,1.81468l-.94579.1384c.27681-.01538.56132-.47673.27681-.67666.41523.29988-1.27642,1.10726-.03844,1.43789l.65358-.5075c.47674.51519,1.47635,1.1534,1.17647,1.79161.9304-.29219-.10765-.1461.98423-.59976-1.35332.39215.05382-1.63783-1.3687-1.0073,1.261-.469.53825-.80738,1.61475-1.42252-.30757.01538-.59207.2153-.43829-.32295a1.87657,1.87657,0,0,1-.27681-.11534c.00769-.01538.01537-.02306.02307-.03845a.1354.1354,0,0,0-.03845.03076c-.04614-.02307-.05383-.02307-.01538.00768a1.11279,1.11279,0,0,1-.47674.27682c-.7151-.26913-.692-1.12265-1.06112-1.41483.1461-.32295.35371.13071.692-.03845l-.55363-.4306c.692-.04613,1.1457-.84583,1.55323-.1l.03076-.67667a.99919.99919,0,0,0,.25375-1.28411c.1461-.32295-.76124-.80738-.223-.53056l-.4306-1.06113.16917-.00768c.08458-1.04575-1.14571-2.1607.1-3.35254a1.51625,1.51625,0,0,1-.19224-1.30718l.59977-.11533c-.20761-.45367.59976-1.361-.02307-1.55325,1.60706-.49211.35371-2.19914.63821-2.99882l-.77662-.03075a3.56527,3.56527,0,0,0-.49211-1.75316l-.692.03845c-.569-.58438.49211-1.50711.42291-2.43751.26144.06152.19224.29989.03845.469,1.56093-1.10726-1.13033-2.33755,0-3.34484-.25375-.25375-.16147-.4306.00769-.60746a.07845.07845,0,0,0,.03845.06152.37536.37536,0,0,0,.00769-.1c.11534-.10765.25375-.223.36909-.346a1.48834,1.48834,0,0,0-.36909.29219,1.98719,1.98719,0,0,0-.26912-.77662l.73817-.123a.36138.36138,0,0,0-.02307-.0692c.27682-.28451-.3537-.223-.90733-.07689a1.63653,1.63653,0,0,0-.446-.37678c1.19184-.23068-.39985-.75355.86888-1.06881-.62283-.19223-.469-1.44558-1.77622-1.59937.16916-.0077.25375-.09228.26143.06151.1461-.32295.29988-.63821-.0692-.9304l.9381-.13841-1.26874-.69973c.5767-.42291.90734-.59976,1.63013-.17686-1.11494-1.02267-.42291-.83044-1.52248-1.69164l.60746.03845c-.02307-.30757-.83814-.80738-.33834-.99192,1.1534-.692.16148-3.42943,1.238-5.20566-1.79161.346.79969-.83044-.58439-.89964.42292-.1.66128-.35371,1.03037-.06152-.41523-.90734.669-1.361-.49981-1.99152.42292-.10765.62283.19223.87658.1-.09227-.06921-.36909-.2922-.11534-.38447s.35371.13072.53825.27682c-.0692-.93041-1.37639-1.02268-2.60667-1.09188.57669-.46905.4998-.70742-.30758-1.04575.39984-.16147.82276-.43829.96117.13841.06151-.323.58438-1.98384-.39216-2.0146.24606-.1.0692-.45367-.03845-.53825a4.9784,4.9784,0,0,0,.05383-1.5071l-.16148.19992c-1.18415-.2845-.26143-.59207-.40753-1.16877l.123.01538c.85351-1.32256-.40753-.569.569-1.87619l-.73817.0692c-1.584-.123.93809-1.1534.33064-1.907l-.42288.26912c-.54594-.41522,2.16069-1.15339,2.35293-1.56862.1384-.09227.223.1461.323.26913.93809-1.08419-.96886-.13841-1.19185-.94579.52288-.1461,1.32256.19224,1.42252-.3537.42292-.26913-1.69164-1.57631-.692-2.32217-.39984.16147-.79968.323-1.10726-.04613-.1461-.5767,1.5148-1.55324.25375-2.07611a.5964.5964,0,0,1,.31526-.10765c-.32294-.43829-.54593-1.43021-1.23028-1.69934,2.54515-.40753-1.238-2.73739,1.10726-2.7297l-.123-1.35332.23836.03845c.15379-.86889-.40753-1.16877-.96885-1.47635.16148-.19992.37677-.05382.49981-.03844.47673-1.261.37677-1.39177-.79969-2.45289l.76124-.10765c-.446-.28451,1.19184-1.83.30757-3.068a.646.646,0,0,1,.33833.1384c-.892-1.39176,2.11456-3.33715-.66128-3.85233l-.68435-.92272c-.2153,1.19184-1.20722-.17686-1.66857.31526-.16148-.46905.83813-1.21491.97654-.63821l-.13841.09227c1.44558.2153.51518-1.484,1.49941-1.44559-.0692-2.34524.73048-4.629.792-6.8281l-1.12264.25375.06152-.76893c.26143-.19992.87657-.26913.83044.27681.63821-.2845-.53056-.915-.77662-.9304.45367-1.06881,1.31487.41522,1.33794.09227l-.08459-.446-.13071.1c-.46136-.3614-.94579-.39215-.892-1.05343.223-.41523.692-.2153.73817-.37678.07689,0,.11534-.05383.03076-.25375l.09227-.96885-.892.38447c-.43829-.43061.04613-.90734-.96116-.46136,1.55323-.65359.55363-3.59859,1.038-3.99844a1.96573,1.96573,0,0,1-.56132-1.92232c-.18454.18454-1.18416.29219-1.06112-.33833,2.06073.23068.892-1.1534,2.376-1.66858-.98423.45367-.24606-1.7993-1.63782-1.0765.16916-.53056.76893-.03076,1.25335-.4306-.79969-1.25336.51518-2.76815.24606-4.3137-.26912-.02307-.68435.23837-1.08419-.1l1.35331-.82275c-.13071-.30758-1.56092-.28451-.62283-.83814-.23068.07689-.569.19992-.65359-.00769,1.31487-3.03727-1.0765-6.213,1.39946-9.29636-.52288.41522-.5767.13841-.59208-.17686-.123.20762-.669-.00769-1.038.03845l1.015-1.2918c-1.015-.23837-.06921-1.38408-1.03806-1.52248l.17686.40753c-1.14571-.54594-2.55285.76124-4.02151.68435,1.30718.60745-1.93,1.60706-.06151,2.60667-.29989.223-.47674-.18454-.81507-.0692.63052.25374.76124.56132.47674,1.12263L91.43538,33.97c.15378,1.59168-.469,2.276-.88427,4.06764l.73048-.13072c-.1.38447-.32295.46905-.5075.6459,1.10726.43829.06152-1.0765,1.27643-.67665-1.484.50749-.02307,2.71432-1.707,3.06034-.00769.59207.84582-.17686.83045.41522l-.45367.15379.58439.14609c-.1.38447-.669.58439-1.05344.59977.04614-.09227-.10765-.26913-.1384-.36909-.53825.49981.18454,1.41483.00769,1.59169l.2845-.569c.42292,1.61475-.16916,3.58321.75356,5.14414l.346-.11534c.63822,1.19184-.37677.95348-.08458,2.26066l-.08458-.04614a1.06917,1.06917,0,0,1,.47674.96885c-.39984-.33064-.78431.62284-1.23029.18455.68435,1.2918.53825.63821,1.81467,1.49172l-.569.19992c.51518.29219.7843.31526.93809.96885-.49211-.53825-.86889.41522-1.51479-.18454-1.24567,1.36869,1.261,2.03766-.56132,2.66049,1.57631.63053.87658-1.18415,1.21491-.83044.51518-.2922,1.17646.52287,1.02268.95347-.03845.43829-2.02229.74586-1.99153,1.84543.00769-.10764-.11534-.11534-.10765-.223-.39984.41523.54594.80738-.10765,1.31487.95347.28451-.05382.65359,1.16109.73818l-.28451-1.0073c.31527.569,1.74547,1.10725,1.05344,2.053a2.15126,2.15126,0,0,1-.74586-.54594c-.3614.27681.23836.53056-.13072.81507-1.21491-.08459-.26143-1.23029-1.19184-1.83775-.51519.29989.88427,1.16109-.43829.85352,1.67626.446-.2153,1.08419,1.06881,1.83005l-.73048-.04614c.11534.11534.46135.3614.43829.5767l-.94579-.39215c.80738.60745-.70741,1.16108-.26912,1.74547-.02307-1.21491.87658-.26912,1.41482-.78431.97654,1.49941-1.90695.8612-1.56092,2.53747-.1-.223.43829-.85351.77662-.49981a2.10476,2.10476,0,0,1-.81507.9381c.15379,1.10726.75356-.16917,1.19953.29988-.892.37678.3614.54594.6459,1.03037h-.74586c-.47674,1.261,1.54555.33833.96885,1.47634l-1.03036-.48442.26912.59207-.84582-.123c.62283.6459.46136.84582.23068,1.47635.52287-.1461,1.34563.08458,1.3687.6459-.43829.38446-.70742-.2153-.59977.5767-.46135-.17686-1.04574-.37678-.3614-.7228-.23836-.03844-.469-.17685-.70741-.2153-.5075.40754-.11534,1.03037-.10765,1.32256a.48477.48477,0,0,1,.17686-.30757l1.03036,1.1534c-.27682.18454-.49981.03844-.7228-.10765.0769.23067.42292.39215.48443.73817-.59977-.09227-1.2226-.06921-1.5071-.55363l.669,1.09957c-.26144.07689-.7228.56132-.94579.42291-.35371.60745,1.16877,1.49172.69973,2.2991a.53467.53467,0,0,1,.31526.29988c-.1384.75355-.87658,1.43021-.04613,2.32217l-1.08419.50749c.246.69973,1.361-.692,1.76854.48443.346.83044-.92272.30757-1.2226.59976.54594.41522,1.6532,1.13033.77662,1.89157C89.98979,82.95079,90.15126,82.75856,90.06668,82.52019Zm.48442,8.67353c-.15378-.16917-.63821-.49981-.19992-.62283C91.20469,90.75543,90.79716,90.90153,90.5511,91.19372ZM92.335,104.37318c-.24606-.123-.123-.31527.15378-.53825A.48377.48377,0,0,1,92.335,104.37318Zm5.16721,36.71641c-.01538-.00769-.02307-.01539-.03845-.01539.2922-.38445.17686-.246.03845.0154Zm-.32295.77661a.31959.31959,0,0,0,.30757.03845c-.18454-.05383-.19992-.23068-.1461-.4306C97.14852,141.52787,97.01011,141.63552,97.17928,141.8662Zm-.29219-83.56731-.19224.15378c-.2153-.346-.02307-.25373.19223-.15377Z"/><path class="cls-7" d="M91.32,102.87376a1.36243,1.36243,0,0,1,.39984-.0692A.30785.30785,0,0,0,91.32,102.87376Z"/><path class="cls-7" d="M89.68221,77.13c.00769-.00769,0-.01537.00769-.02306a.42631.42631,0,0,0-.13071-.02307Z"/><path class="cls-7" d="M90.88943,129.80938a.846.846,0,0,1,.38447-.30756.33611.33611,0,0,0-.38176.28322Z"/><path class="cls-7" d="M98.44032,145.98767l-.19223-.4998c.03845.23836-.123.33063-.24606.446C98.17888,145.92615,98.42494,145.83389,98.44032,145.98767Z"/><path class="cls-7" d="M93.84981,150.31676c.09227.0692.00769.15378.1.223l.346-.02307C94.27273,150.2091,93.99591,149.9938,93.84981,150.31676Z"/><path class="cls-7" d="M95.97206,146.449c-.62283.03845-.41522.35371-.29988.69973a.16528.16528,0,0,1,0-.06152C96.54876,147.19489,96.26425,146.81812,95.97206,146.449Z"/><path class="cls-7" d="M95.70293,147.23334a.57847.57847,0,0,1,.01537.32295C96.06433,147.59473,95.78751,147.42557,95.70293,147.23334Z"/><path class="cls-7" d="M97.59451,142.85043c-.16148.16917.79969.10765.54594.19992C98.93244,143.23489,97.17928,141.9431,97.59451,142.85043Z"/><polygon class="cls-7" points="93.919 146.733 94.688 146.61 94.065 146.41 93.919 146.733"/><path class="cls-7" d="M94.488,143.97308l-.2153.56132a.27474.27474,0,0,1,.26144.1461C94.55722,144.34217,94.711,143.96539,94.488,143.97308Z"/><path class="cls-7" d="M94.53416,144.6805a.47418.47418,0,0,0,.13071.446A1.22177,1.22177,0,0,0,94.53416,144.6805Z"/><polygon class="cls-7" points="93.688 145.972 93.849 145.803 93.903 145.411 93.688 145.972"/><path class="cls-7" d="M94.63412,137.97543l-.223-.60745c-.26144-.06152-.42292.10765-.323.33063C94.27273,137.84471,94.38037,138.06768,94.63412,137.97543Z"/><path class="cls-7" d="M92.51956,139.82084a1.37365,1.37365,0,0,1,.58439-.26913l-.95347-.01538Z"/><path class="cls-7" d="M92.29658,138.04462c-.26143-.06152-.76124-.88427-.69973-.11534C91.85828,137.9908,92.08127,138.60594,92.29658,138.04462Z"/><polygon class="cls-7" points="93.511 128.871 93.519 129.025 95.087 129.002 93.511 128.871"/><path class="cls-7" d="M89.7591,120.78215c-.37677.7228.96886.16917.49981.82276.36909.16916.38446-.53057.69973-.3614C90.57417,120.8129,90.78947,120.58222,89.7591,120.78215Z"/><path class="cls-7" d="M90.95863,121.2435a1.71423,1.71423,0,0,0,.23837.223A.75844.75844,0,0,0,90.95863,121.2435Z"/><polygon class="cls-7" points="97.679 29.963 98.009 29.502 97.479 29.802 97.679 29.963"/><path class="cls-7" d="M96.518,29.07956l.99961-.10765-.89965-.27682C96.65641,28.79505,96.74867,28.995,96.518,29.07956Z"/><path class="cls-7" d="M88.5365,92.47783l.23837.03845c.26143-.0692.27681-.17685.32295-.39984Z"/><polygon class="cls-7" points="89.282 86.188 89.267 86.295 90.166 86.095 89.282 86.188"/><path class="cls-7" d="M88.13666,80.90544c-.03845.2153.16147.469.123.68435C88.09821,81.12073,89.2593,80.84392,88.13666,80.90544Z"/></g></g></svg>