<?xml version="1.0" encoding="utf-8"?>
<!-- Generator: Adobe Illustrator 23.0.3, SVG Export Plug-In . SVG Version: 6.00 Build 0)  -->
<svg version="1.1" id="图层_1" xmlns="http://www.w3.org/2000/svg" xmlns:xlink="http://www.w3.org/1999/xlink" x="0px" y="0px"
	 viewBox="0 0 858.02 185.43" style="enable-background:new 0 0 858.02 185.43;" xml:space="preserve">
<style type="text/css">
	.st0{fill:#F4D421;}
	.st1{fill:none;stroke:#13AE67;stroke-width:11;stroke-linecap:round;stroke-miterlimit:10;}
	.st2{fill:url(#SVGID_1_);}
	.st3{fill:url(#SVGID_2_);}
	.st4{opacity:0.64;}
	.st5{opacity:0.7;}
	.st6{fill:#13AE67;}
	.st7{fill:#3E3A39;stroke:#3E3A39;stroke-linecap:round;stroke-miterlimit:10;}
	.st8{fill:#3E3A39;stroke:#3E3A39;stroke-width:2;stroke-miterlimit:10;}
	.st9{fill:#3E3A39;}
	.st10{fill:#3E3A39;stroke:#3E3A39;stroke-miterlimit:10;}
	.st11{fill:#3E3A39;stroke:#3E3A39;stroke-width:3;stroke-miterlimit:10;}
	.st12{fill-rule:evenodd;clip-rule:evenodd;fill:#3E3A39;}
</style>
<g>
	<g>
		<circle class="st0" cx="95.33" cy="89.49" r="89.49"/>
		<path class="st1" d="M6.31,98.73c22.6-41.24,38.8-49.43,49.8-48.35c9.9,0.97,13.8,9.26,42.07,38.06
			c31.19,31.77,38.6,34.05,44.3,34.28c5.27,0.21,22.19-0.84,42.35-33.22"/>
		
			<linearGradient id="SVGID_1_" gradientUnits="userSpaceOnUse" x1="147.5643" y1="75.5065" x2="147.5643" y2="41.3326" gradientTransform="matrix(1 0 0 -1 0 179.67)">
			<stop  offset="0" style="stop-color:#35B9BB"/>
			<stop  offset="0.1617" style="stop-color:#36B7A5"/>
			<stop  offset="0.4497" style="stop-color:#3FB584"/>
			<stop  offset="0.6" style="stop-color:#41B477"/>
			<stop  offset="0.7" style="stop-color:#39B273"/>
			<stop  offset="0.8857" style="stop-color:#2DB06D"/>
			<stop  offset="1" style="stop-color:#2DB06B"/>
		</linearGradient>
		<circle class="st2" cx="147.56" cy="121.2" r="17.11"/>
		
			<linearGradient id="SVGID_2_" gradientUnits="userSpaceOnUse" x1="53.0543" y1="146.4204" x2="53.0543" y2="112.2464" gradientTransform="matrix(1 0 0 -1 0 179.67)">
			<stop  offset="0" style="stop-color:#35B9BB"/>
			<stop  offset="0.1617" style="stop-color:#36B7A5"/>
			<stop  offset="0.4497" style="stop-color:#3FB584"/>
			<stop  offset="0.6" style="stop-color:#41B477"/>
			<stop  offset="0.7" style="stop-color:#39B273"/>
			<stop  offset="0.8857" style="stop-color:#2DB06D"/>
			<stop  offset="1" style="stop-color:#2DB06B"/>
		</linearGradient>
		<circle class="st3" cx="53.05" cy="50.29" r="17.11"/>
		<g class="st4">
			<g class="st5">
				<g>
					<g>
						<g>
							<g>
								<path class="st6" d="M190.51,86.31c0.27,0.07,0.17-0.76,0.21-0.92C190.27,85.58,190.52,86.52,190.51,86.31z"/>
								<polygon class="st6" points="186.08,88.21 186.16,87.87 185.51,88.71 								"/>
								<path class="st6" d="M181.95,88.19c0.39,1.43,1.5-0.23,2.24,0.28l0.12,0.33l0.33-1.15
									C183.74,87.83,182.58,88.59,181.95,88.19z"/>
								<path class="st6" d="M179.74,85.11c0.14,0.56-0.48,0.48,0.51,0.17c-0.05-0.06-0.06-0.1-0.09-0.14
									C180.07,85.15,179.95,85.15,179.74,85.11z"/>
								<path class="st6" d="M180.16,85.14C180.6,85.1,179.88,84.67,180.16,85.14L180.16,85.14z"/>
								<path class="st6" d="M178.15,85.46l0.57-0.5c-0.12-0.33-0.63-0.4-0.44-0.64C177.69,84.59,177.82,84.92,178.15,85.46z"/>
								<path class="st6" d="M177.61,86.5l0.3-0.21C177.85,86.15,177.77,86.1,177.61,86.5z"/>
								<path class="st6" d="M178.53,85.85l-0.63,0.44c0.08,0.23,0.09,0.69,0.29-0.16C178.14,86.55,178.27,86.15,178.53,85.85z"/>
								<path class="st6" d="M178.89,86.06c0.32,0.31,0.74,0.51,0.16,1C180.15,86.87,179.99,85.86,178.89,86.06z"/>
								<path class="st6" d="M181.74,89.67l0.43,0.42l0.37-0.48C182.35,89.85,181.71,89.22,181.74,89.67z"/>
								<path class="st6" d="M174.58,84.72c-0.04,0.3,0.19,0.81,0.24,1.2l0.42-0.35C175.02,85.36,174.6,85.17,174.58,84.72z"/>
								<path class="st6" d="M174.81,85.92l-0.63,0.52C174.74,86.5,174.85,86.25,174.81,85.92z"/>
								<polygon class="st6" points="177.5,88.08 178.55,86.99 177.3,88.1 								"/>
								<polygon class="st6" points="172.15,84.68 172.51,83.98 171.87,85.04 								"/>
								<path class="st6" d="M170.55,84.8c0.27-0.58-0.36-0.99-0.08-1.34c-0.44,0.1-0.81,0.6-1.14,1.05
									C169.68,84.26,170.06,84.33,170.55,84.8z"/>
								<path class="st6" d="M168.76,85.17c0.18-0.14,0.36-0.39,0.56-0.66C169.13,84.65,168.94,84.84,168.76,85.17z"/>
								<path class="st6" d="M173.1,86.29c-0.05-0.18-0.14-0.66-0.5-0.87l0.25,0.85C172.92,86.28,173.01,86.28,173.1,86.29z"/>
								<path class="st6" d="M172.86,86.3l-0.01-0.03c-0.27-0.02-0.46-0.04-0.54-0.05C172.38,86.23,172.54,86.26,172.86,86.3z"/>
								<path class="st6" d="M173.16,86.29c-0.02,0-0.04,0-0.06,0C173.12,86.37,173.14,86.4,173.16,86.29z"/>
								<path class="st6" d="M175.84,87.31c-0.37,0.48-1.15,0.99-0.4,1.72C175.71,88.44,175.28,88.03,175.84,87.31z"/>
								<path class="st6" d="M173.47,87.36l0.67,0.2c-0.01-0.23-0.13-0.55,0.05-0.79L173.47,87.36z"/>
								<polygon class="st6" points="173.14,87.63 173.47,87.36 173.22,87.29 								"/>
								<path class="st6" d="M169.91,85.97c-0.29,0.37-0.61,0.4-0.97,0.46c0.39,0.17,0.78,0.26,1.16,0.26
									C170.16,86.42,170.32,85.94,169.91,85.97z"/>
								<path class="st6" d="M171.34,86.21c-0.02,0.02-0.05,0.03-0.06,0.05C171.32,86.33,171.35,86.35,171.34,86.21z"/>
								<path class="st6" d="M165.4,86.42c0.02,0.05,0.04,0.11,0.06,0.16c0-0.05,0.01-0.1,0.01-0.15L165.4,86.42z"/>
								<path class="st6" d="M170.17,86.85c0.29,0.16,0.46-0.04,0.63-0.31c-0.22,0.09-0.45,0.14-0.69,0.15
									C170.08,86.81,170.07,86.89,170.17,86.85z"/>
								<path class="st6" d="M167.77,85.57c0.15,0.18,0.32,0.33,0.5,0.47C168.12,85.77,167.82,85.34,167.77,85.57z"/>
								<path class="st6" d="M171.18,86.02c0.01-0.01,0.03-0.03,0.04-0.04C171.13,85.8,171.14,85.89,171.18,86.02z"/>
								<path class="st6" d="M171.18,86.02c-0.15,0.12-0.27,0.33-0.38,0.52c0.18-0.07,0.34-0.16,0.48-0.29
									C171.24,86.19,171.2,86.1,171.18,86.02z"/>
								<path class="st6" d="M164.33,91.91c0.05-0.79,0.81-1.52,1.47-0.67c0.65-0.59,0.22-3.2-0.34-4.66
									c-0.02,0.35-0.02,0.67-0.69,1.13c0.23,0.43,1.48,1.01,0.92,1.73c-0.88,0.41-0.72-0.28-1.15-0.7
									c0.36,0.99-1.12,1.44-0.93,2.89l0.77-0.51C164.39,91.34,164.11,91.71,164.33,91.91z"/>
								<path class="st6" d="M166.73,86.66l0.27-0.1c-0.31-0.14-0.54-0.45-0.95-1.07c-0.46,0.39-0.55,0.68-0.58,0.94l1.35,0.11
									L166.73,86.66z"/>
								<path class="st6" d="M168.23,86.56c-0.21,0.86-0.87,1.23-0.47,2.16c0.8-0.06,0.56-0.72,1.04-1.09
									c-1.3,0.21,0.37-0.48-0.56-0.97c0.25-0.15,0.48-0.19,0.7-0.23c-0.23-0.1-0.46-0.23-0.67-0.39c0.01,0.02,0.02,0.03,0.03,0.05
									h0.01c0,0.01,0,0.01,0,0.01c0.06,0.11,0.07,0.17,0.01,0.11c0,0.01-0.02,0.01-0.03,0.02
									C168.28,86.35,168.26,86.45,168.23,86.56c-0.38-0.18-0.06-0.23,0.06-0.33c0-0.04,0.01-0.08,0.02-0.13v-0.01l-1.3,0.47
									C167.27,86.68,167.62,86.66,168.23,86.56z"/>
								<path class="st6" d="M174.75,90.88c-0.04-0.08-0.04-0.14-0.04-0.2C174.63,90.79,174.59,90.86,174.75,90.88z"/>
								<path class="st6" d="M174.22,90.36c0.09-0.12,0.17-0.46,0.48-0.38c0.27,0.26,0,0.41,0.01,0.7c0.19-0.23,0.65-0.62,0.07-1.04
									l-0.09,0.12c-0.52-0.3-1.2-1.37-1.1-1.49C173.73,89.05,173.87,89.6,174.22,90.36z"/>
								<path class="st6" d="M171.19,88.68l-1.08,0.42l0.55,0.75l-0.03-0.45C171.24,89.58,171.11,89.03,171.19,88.68z"/>
								<polygon class="st6" points="165.28,86 165.42,85.09 164.8,86.37 								"/>
								<polygon class="st6" points="163.87,86.11 163.92,85.31 163.55,85.79 								"/>
								<path class="st6" d="M84.52,95.93l-0.32,0.22C84.35,96.08,84.45,96.01,84.52,95.93z"/>
								<path class="st6" d="M86.82,95.98l0.06-0.39C86.77,95.8,86.73,95.96,86.82,95.98z"/>
								<path class="st6" d="M129.34,86.19c-0.46-0.74-0.98-1.89-0.92-1l0.14,0.87C128.88,85.91,129.13,86.01,129.34,86.19z"/>
								<path class="st6" d="M105.68,91.38c0.04,0.08,0.09,0.17,0.14,0.26c0.11-0.3,0.22-0.57,0.31-0.83
									C106,90.99,105.84,91.18,105.68,91.38z"/>
								<path class="st6" d="M105.36,94.97l-0.61-0.56C104.88,94.6,105.08,94.79,105.36,94.97z"/>
								<path class="st6" d="M71.95,96.85l-0.37,0.88C72.16,97.72,71.9,97.28,71.95,96.85z"/>
								<path class="st6" d="M149.47,86.42c-0.4-0.34-0.72-0.48-1-0.52C148.95,86.4,149.34,87.15,149.47,86.42z"/>
								<path class="st6" d="M85.43,86.72c-0.19,0.16-0.28,0.33-0.27,0.53C85.35,87.1,85.47,86.93,85.43,86.72z"/>
								<path class="st6" d="M147.32,85.9c0.07,0.09,0.14,0.13,0.21,0.2c0.29-0.15,0.59-0.26,0.94-0.21
									C148.12,85.53,147.71,85.3,147.32,85.9z"/>
								<path class="st6" d="M26.35,96.13c-0.03-0.04-0.07-0.06-0.1-0.1C26.24,96.14,26.29,96.15,26.35,96.13z"/>
								<path class="st6" d="M13.07,87.37c0.13-0.05,0.34-0.05,0.55-0.07C13.52,87.25,13.35,87.25,13.07,87.37z"/>
								<path class="st6" d="M158.21,85.73C158.51,85.67,158.26,85.63,158.21,85.73L158.21,85.73z"/>
								<path class="st6" d="M159.66,89.16c-0.06,0.1-0.11,0.22-0.12,0.42C159.57,89.37,159.61,89.24,159.66,89.16z"/>
								<path class="st6" d="M144.35,91.3c-0.01,0-0.02,0-0.03,0C144.41,91.47,144.39,91.44,144.35,91.3z"/>
								<path class="st6" d="M158.66,86.12c-0.11-0.11-0.24-0.2-0.38-0.26C158.34,85.93,158.46,86.01,158.66,86.12z"/>
								<path class="st6" d="M158.6,85.71c0.1,0.04,0.18,0.06,0.26,0.08C158.9,85.65,158.87,85.56,158.6,85.71z"/>
								<path class="st6" d="M157.8,85.77c0.17-0.01,0.33,0.03,0.48,0.09c-0.06-0.06-0.08-0.11-0.07-0.14
									C158.13,85.74,158,85.76,157.8,85.77z"/>
								<path class="st6" d="M50.78,93.8c-0.02-0.03-0.04-0.05-0.06-0.08C50.42,94.08,50.55,94.03,50.78,93.8z"/>
								<path class="st6" d="M121.57,95.21c0.01-0.01,0.02-0.03,0.03-0.04c-0.01-0.01-0.03-0.02-0.04-0.03L121.57,95.21z"/>
								<path class="st6" d="M120.5,95.85c0.46-1.08,0.72-0.95,1.06-0.72l-0.35-2.5L120.5,95.85z"/>
								<path class="st6" d="M79.01,96.18l0.75,0.78c-0.91,1.28-1.56,0.84-0.86,1.94c0.11-2.72,2.92-0.28,3.03-2.99l0.5,0.57
									c-0.14-0.03-0.16,0.13-0.31,0.11c0.96,1.3,0.72-1.96,1.96-1.58c0.43,0.21,0.74,0.6,0.44,0.92l0.96-0.67
									c0.28,0.05,0.21,0.52-0.07,0.47l1.47-0.22l-0.01,0.08c0.21-0.43,0.69-1.08,0.92-1.37c0.37,0.39-0.19,0.29-0.09,0.63
									l0.81-0.66c0.33,0.7-0.34,1.39-0.91,1.29c0.76,2.71,0.68-0.68,2.32,0.9l-0.77,0.34c0.5,1.54,1.1,0.98,1.97,1.94
									c-0.21-0.5-1.74-2.42-0.86-3.1c0.25,0.21,0.58,0.3,1.05-0.24c0,0.97,0.47,0.73,1.05,0.67l-0.04,1.28
									c0.63-0.37,0.58-1.02,0.95-1.6c0.7,0.13,0.85,1.12,1.01,1.95c1.12,0.2-0.78-1.59,0.55-1.83c0.94,0.49,1.59-0.03,2.71-0.8
									c0.65,0.44-0.11,0.78,0.12,1.15l0.58-1.02c0.14,0.02,0.1,0.34,0.07,0.5c0.49-0.4,0.04-1.28,0.81-1.63
									c0.21-1.41,1.58,2.06,2.53,0.46c0.23,0.36-0.11,0.78-0.04,1.28c1.31-1.05,1.12-0.76,2.19-2.18l0.91,0.84
									c-0.67-0.96,0.19-2.1,0.94-3.03c-0.24-0.46-0.44-0.87-0.58-1.06l1.2-0.69c0.14,0.21,0.02,0.65-0.17,1.18
									c0.08-0.11,0.16-0.21,0.22-0.31c0.43,0.47,0.21,1.21-0.1,1.93c-0.15-0.25-0.29-0.52-0.43-0.79
									c-0.3,0.78-0.57,1.64-0.51,2.39c0.08-0.15,0.23-0.27,0.39-0.35c-0.08,0.21-0.13,0.4-0.09,0.53s0.17-0.15,0.36-0.47
									l0.27,1.43l0.07-0.57l1.57,0.89c1.12-1.44,2.1-3.55,3.88-4.14c-0.44,1.05-0.09,1.71-0.12,2.95
									c-0.49-1.31-1.38,0.56-2.3,0.29c0.48,0.14,0.38,0.73,0.25,0.93l1.65-1.19c-0.04,1.01,0.35,0.76,0.78,1.18
									c-0.32-2,1.23-1.33,1.9-1.95c0.04,0.67-0.12,1.36-0.94,1.2c0.9,1.51,1.16-2.35,2.05-1.07c-0.2,0.02-0.31-0.09-0.39,0.26
									c0.47-0.6,1.61-0.12,1.34,0.46l-0.2,0.01c1.32,0.24,4.03,0.01,4.23-1.69c0.01,0.22-0.17,2.05-0.25,2.39l2.36-5.72
									c-0.21,1.46,0.59,4.94-0.51,5.77c0.32,0.21,0.71,0.45,1.37-0.06c-0.22-0.21-0.54-2.11-0.24-2.25
									c0.81,1.63,0.56,0.87,1.55,2.26c-0.32-0.31,0.04-2.6,0.55-2.53c-0.08,0.34,0.04,2.26-0.14,2.5l1.27-2.25
									c-0.32,0.41-0.06,1.91,0.23,2.54c-0.13-0.44,1.1,0.04,1.43-0.18l-0.54-0.52c1.43,0.34,1.41-3.16,2.84-3.04
									c-0.17,0.46-0.42,2.86,0.3,3.14c0.33-1.15,1.47-5.54,2.72-6.43l0.24,0.66l0.96-0.75c-0.6,1.73-2.29,5.38-3.21,6.8
									c0.54,0.52,0.15,0.78,0.95,0.72c0.28,0.62-0.44,0.94-0.67,0.97l1.87,0.4c-0.08-1.35,1.43-1.35,1.36-2.47l-2.03,1.39
									c-0.08-1.34,1.17-3.82,2.5-3.58c0.34,0.54-0.25,2.39-0.22,2.84c0.17-0.46,1.26-0.88,1.38-0.56l-0.56,0.72
									c0.74,0.51,1.2-1.78,2.09-0.5c0.31,0.09,0.91,1.73,0.97,0.94c-0.5-1.53-0.6-6.28-0.26-7.43c0.11,0.1,1.61,1.47,1.95,2.22
									c0.5,1.2-0.76,2.87-0.33,3.9c0.02-0.37,0.3-0.82,0.41-0.97c0.32,0.31-0.13,1.14,0.56,0.97c0.12-1.36,1.42,0.12,0.33-1.15
									c0.68-0.39,0.73,0.28,1.53,0.22c-0.26-0.88,0.72-3,1.4-3.39c-0.04,0.35,0.11,0.8,0.19,1c1.4,0.12,2.15,0.74,3.45,0.75
									c0.12,0.33,0.75,0.73,0.48,1.32c0.19-0.24,0.36-0.7,0.76-0.74c0.78,1.18-0.9,0.18-0.3,1.6c0.05-0.79,1.04-1.09,1.61-1.59
									c-0.18-1.22-1.32-0.23-1.9,0.26c0-1.69,1-3.46,2.36-4.24c1.08-0.42,0.47,1.09,0.66,0.85c2.04,0.29,1.73-2.95,3.42-1.73
									c0.67,1.08,0.03,2.14,0.18,2.91c-0.88,0.41-1.36-0.68-1.95-0.64l0.74,0.51c-0.28,0.36-0.87,0.63-1.19,0.32
									c0.56,0.97,3.44,0.19,5.01,1.08c0.28-0.36,0.76-0.73,0.53-1.17l-0.5,0.15c-0.46-0.87,0.93-1.2,0.31-1.6
									c0.67-0.61,1.41-1.57,2.35-1.08l0.18,1.23c-0.02-0.36-0.61-0.73-0.88-0.36c0.39-0.54,1.44,1.66,1.87,0.05l-0.66-0.85
									c0.67-0.62,1.5-1.92,2.33-1.53c-0.38-1.21-0.19,0.14-0.78-1.28c0.51,1.76-2.13-0.07-1.3,1.78c-0.61-1.64-1.05-0.7-1.84-2.1
									c0.02,0.4,0.28,0.77-0.42,0.57c-0.03,0.12-0.11,0.27-0.15,0.36c-0.02-0.01-0.03-0.02-0.05-0.03
									c0.01,0.02,0.02,0.03,0.04,0.05c-0.03,0.06-0.03,0.07,0.01,0.02c0.17,0.18,0.3,0.39,0.36,0.62
									c-0.35,0.93-1.46,0.9-1.83,1.38c-0.41-0.19,0.17-0.46-0.05-0.9l-0.56,0.72c-0.06-0.9-1.1-1.49-0.12-2.02l-0.88-0.04
									c-0.52-0.5-1.23-0.7-1.67-0.33c-0.41-0.19-1.05,0.99-0.69,0.29l-1.38,0.56l-0.01-0.22c-1.36-0.11-2.8,1.49-4.35-0.13
									c-0.46,0.23-0.93,0.5-1.7,0.25l-0.15-0.78c-0.59,0.27-1.76-0.78-2.02,0.03c-0.63-2.09-2.85-0.46-3.88-0.83l-0.04,1.01
									c-0.71-0.06-1.39,0.23-2.28,0.64l0.05,0.9c-0.76,0.74-1.96-0.64-3.16-0.55c0.08-0.34,0.39-0.25,0.6-0.05
									c-1.44-2.03-3.03,1.47-4.34,0c-0.32,0.33-0.56,0.21-0.79-0.01c0.03,0,0.06-0.02,0.08-0.05c-0.03-0.01-0.08-0.01-0.13-0.01
									c-0.14-0.15-0.29-0.33-0.45-0.48c0.14,0.22,0.27,0.4,0.38,0.48c-0.25,0.02-0.63,0.13-1,0.35l-0.16-0.96
									c-0.03,0.01-0.05,0.01-0.09,0.03c-0.37-0.36-0.29,0.46-0.1,1.18c-0.19,0.16-0.36,0.35-0.49,0.58
									c-0.3-1.55-0.98,0.52-1.38-1.13c-0.25,0.81-1.87,0.61-2.07,2.31c-0.01-0.22-0.12-0.33,0.08-0.34
									c-0.42-0.19-0.83-0.39-1.2,0.09l-0.18-1.22l-0.91,1.65c-0.55-0.75-0.78-1.18-0.23-2.12c-1.32,1.45-1.07,0.55-2.2,1.98
									l0.05-0.79c-0.4,0.03-1.04,1.09-1.29,0.44c-0.9-1.5-4.45-0.21-6.75-1.61c0.45,2.33-1.07-1.04-1.16,0.76
									c-0.13-0.55-0.46-0.86-0.08-1.34c-1.18,0.54-1.77-0.87-2.58,0.65c-0.13-0.55,0.25-0.81,0.13-1.14
									c-0.09,0.12-0.37,0.48-0.5,0.15c-0.12-0.33,0.17-0.46,0.36-0.7c-1.2,0.09-1.32,1.79-1.41,3.39
									c-0.61-0.76-0.91-0.65-1.35,0.4c-0.21-0.52-0.57-1.07,0.18-1.25c-0.42-0.08-2.57-0.76-2.61,0.51
									c-0.13-0.32-0.59-0.09-0.7,0.05c-0.94-0.08-1.03-0.19-1.95-0.07l0.26,0.21c-0.37,1.54-0.77,0.34-1.52,0.53l0.02-0.16
									c-1.71-1.11-0.74,0.53-2.43-0.74l0.09,0.96c-0.16,2.06-1.5-1.22-2.48-0.43l0.35,0.55c-0.54,0.71-1.5-2.81-2.03-3.06
									c-0.12-0.18,0.19-0.29,0.35-0.42c-1.41-1.22-0.18,1.26-1.23,1.55c-0.19-0.68,0.25-1.72-0.46-1.85
									c-0.35-0.55-2.05,2.2-3.01,0.9c0.21,0.52,0.42,1.04-0.06,1.44c-0.75,0.19-2.02-1.97-2.69-0.33
									c-0.09-0.14-0.13-0.28-0.13-0.41c-0.57,0.42-1.85,0.71-2.2,1.6c-0.53-3.31-3.55,1.61-3.54-1.44l-1.76,0.16l0.05-0.31
									c-1.12-0.2-1.52,0.53-1.91,1.26c-0.26-0.21-0.07-0.49-0.05-0.65c-1.64-0.62-1.8-0.49-3.18,1.04l-0.14-0.99
									c-0.37,0.58-2.37-1.55-3.98-0.4c0.02-0.11,0.05-0.3,0.18-0.44c-1.81,1.16-4.33-2.75-4.99,0.86l-1.19,0.89
									c1.54,0.28-0.23,1.57,0.41,2.17c-0.61,0.21-1.57-1.09-0.82-1.27l0.12,0.18c0.27-1.88-1.92-0.67-1.88-1.95
									c-3.04,0.09-6-0.95-8.85-1.03l0.33,1.46l-0.99-0.08c-0.26-0.34-0.35-1.14,0.36-1.08c-0.37-0.83-1.19,0.69-1.21,1.01
									c-1.39-0.59,0.54-1.71,0.12-1.74l-0.58,0.11l0.13,0.17c-0.47,0.6-0.51,1.23-1.36,1.16c-0.54-0.29-0.28-0.9-0.49-0.96
									c0-0.1-0.07-0.15-0.33-0.04l-1.25-0.12l0.5,1.16c-0.55,0.57-1.18-0.06-0.6,1.25c-0.85-2.02-4.67-0.72-5.19-1.35
									c-0.78,0.84-1.54,0.83-2.49,0.73c0.24,0.24,0.38,1.54-0.44,1.38c0.3-2.68-1.5-1.16-2.16-3.09c0.59,1.28-2.33,0.32-1.4,2.13
									c-0.68-0.22-0.04-1-0.56-1.63c-1.63,1.04-3.59-0.67-5.6-0.32c-0.03,0.35,0.31,0.89-0.13,1.41L27,86.7
									c-0.4,0.17-0.37,2.03-1.09,0.81c0.1,0.3,0.26,0.74-0.01,0.85c-3.94-1.71-8.05,1.4-12.05-1.82c0.54,0.68,0.18,0.75-0.23,0.77
									c0.27,0.16-0.01,0.87,0.05,1.35l-1.68-1.32c-0.31,1.32-1.8,0.09-1.97,1.35l0.53-0.23c-0.71,1.49,0.99,3.32,0.88,5.23
									c0.79-1.7,2.08,2.51,3.38,0.08c0.29,0.39-0.24,0.62-0.09,1.06c0.33-0.82,0.73-0.99,1.46-0.62l-0.08,0.2
									c2.07-0.2,2.95,0.61,5.27,1.15l-0.17-0.95c0.5,0.13,0.6,0.42,0.84,0.66c0.57-1.44-1.4-0.08-0.88-1.66
									c0.66,1.93,3.52,0.03,3.96,2.22c0.77,0.01-0.22-1.1,0.54-1.08l0.2,0.59l0.19-0.76c0.5,0.13,0.76,0.87,0.78,1.37
									c-0.12-0.06-0.35,0.14-0.48,0.18c0.65,0.7,1.84-0.24,2.06-0.01l-0.74-0.37c2.09-0.55,4.65,0.22,6.67-0.98l-0.15-0.45
									c1.54-0.83,1.24,0.49,2.93,0.11l-0.06,0.11c0.34-0.45,0.79-0.67,1.26-0.62c-0.43,0.52,0.81,1.02,0.24,1.6
									c1.67-0.89,0.83-0.7,1.93-2.36l0.26,0.74c0.38-0.67,0.41-1.02,1.26-1.22c-0.69,0.64,0.54,1.13-0.24,1.97
									c1.78,1.62,2.64-1.64,3.45,0.73c0.82-2.05-1.54-1.14-1.08-1.58c-0.38-0.67,0.67-1.53,1.23-1.33
									c0.57,0.05,0.97,2.63,2.39,2.59c-0.14-0.01-0.15,0.15-0.29,0.14c0.53,0.52,1.05-0.71,1.7,0.14
									c0.37-1.24,0.85,0.07,0.96-1.51l-1.31,0.37c0.74-0.41,1.44-2.27,2.66-1.37c-0.1,0.32-0.46,0.74-0.71,0.97
									c0.36,0.47,0.69-0.31,1.06,0.17c-0.11,1.58-1.59,0.34-2.39,1.55c0.38,0.67,1.51-1.15,1.11,0.57
									c0.57-2.18,1.41,0.28,2.37-1.39l-0.06,0.95c0.15-0.15,0.47-0.6,0.75-0.57l-0.51,1.23c0.78-1.05,1.51,0.92,2.26,0.35
									c-1.57,0.03-0.35-1.14-1.02-1.84c1.94-1.27,1.12,2.48,3.29,2.03c-0.29,0.13-1.1-0.57-0.64-1.01
									c0.41,0.2,0.96,0.56,1.21,1.06c1.44-0.2-0.22-0.98,0.39-1.56c0.49,1.16,0.71-0.47,1.34-0.84v0.96
									c1.64,0.62,0.43-2.01,1.91-1.26l-0.62,1.34l0.77-0.35l-0.16,1.1c0.84-0.81,1.1-0.6,1.92-0.3c-0.19-0.68,0.11-1.75,0.83-1.78
									c0.5,0.57-0.28,0.92,0.75,0.78c-0.23,0.6-0.49,1.36-0.93,0.47c-0.05,0.31-0.23,0.61-0.28,0.92
									c0.53,0.66,1.34,0.15,1.71,0.14c-0.14-0.04-0.31-0.09-0.4-0.23l1.49-1.34c0.23,0.36,0.05,0.65-0.14,0.94
									c0.3-0.1,0.51-0.55,0.96-0.63c-0.12,0.78-0.09,1.59-0.72,1.96l1.42-0.87c0.09,0.34,0.73,0.94,0.54,1.23
									c0.79,0.46,1.93-1.52,2.98-0.91c0.05-0.15,0.16-0.3,0.39-0.41c0.98,0.18,1.85,1.14,3.02,0.06l0.66,1.41
									c0.91-0.32-0.89-1.77,0.62-2.3c1.07-0.45,0.4,1.2,0.78,1.59c0.53-0.71,1.46-2.15,2.45-1.01
									C79.57,96.28,79.31,96.07,79.01,96.18z M90.25,95.55c-0.22,0.2-0.65,0.83-0.81,0.26C89.69,94.71,89.88,95.23,90.25,95.55z
									 M107.34,93.23c-0.16,0.32-0.41,0.16-0.7-0.2C106.85,92.95,107.08,92.98,107.34,93.23z M154.94,86.51
									c-0.01,0.02-0.02,0.03-0.02,0.05C154.44,86.18,154.61,86.33,154.94,86.51z M155.95,86.93c0.1-0.13,0.09-0.27,0.05-0.4
									c-0.07,0.24-0.3,0.26-0.55,0.19C155.52,86.97,155.65,87.15,155.95,86.93z M47.6,87.31l0.2,0.25
									C47.35,87.84,47.48,87.59,47.6,87.31z"/>
								<path class="st6" d="M105.4,94.55c-0.06-0.16-0.08-0.34-0.09-0.52C105.22,94.19,105.22,94.38,105.4,94.55z"/>
								<path class="st6" d="M72.02,96.68c-0.01-0.01-0.02,0-0.03-0.01c-0.02,0.06-0.03,0.12-0.03,0.17L72.02,96.68z"/>
								<path class="st6" d="M140.32,95.11c-0.21-0.14-0.32-0.32-0.4-0.5C139.91,94.85,140.01,95.05,140.32,95.11z"/>
								<path class="st6" d="M161.3,85.29l-0.65,0.25c0.31-0.05,0.42,0.16,0.58,0.32C161.22,85.63,161.1,85.31,161.3,85.29z"/>
								<path class="st6" d="M166.91,91.26c0.09-0.12,0.2-0.01,0.29-0.13l-0.03-0.45C166.78,90.71,166.49,91.07,166.91,91.26z"/>
								<path class="st6" d="M161.9,88.5c0.05,0.81,0.46,0.54,0.91,0.39c-0.03,0-0.05,0.01-0.08,0
									C162.86,87.75,162.38,88.12,161.9,88.5z"/>
								<path class="st6" d="M162.91,88.86c0.14-0.04,0.28-0.06,0.42-0.02C163.38,88.38,163.16,88.74,162.91,88.86z"/>
								<path class="st6" d="M157.23,86.39c0.21,0.21,0.13-1.04,0.26-0.71C157.73,84.65,156.06,86.94,157.23,86.39z"/>
								<polygon class="st6" points="162.26,91.17 162.1,90.17 161.85,90.98 								"/>
								<path class="st6" d="M158.69,90.44l0.72,0.28c-0.01-0.17,0.08-0.27,0.19-0.34C159.16,90.34,158.67,90.14,158.69,90.44z"/>
								<path class="st6" d="M159.61,90.37c0.23,0.02,0.45,0,0.58-0.17C160.06,90.22,159.79,90.25,159.61,90.37z"/>
								<polygon class="st6" points="161.28,91.47 161.06,91.26 160.55,91.19 								"/>
								<path class="st6" d="M150.91,90.24l-0.79,0.29c-0.08,0.34,0.13,0.55,0.43,0.42C150.74,90.71,151.03,90.57,150.91,90.24z"/>
								<path class="st6" d="M153.3,92.99c-0.21-0.21-0.23-0.43-0.35-0.76l-0.02,1.24L153.3,92.99z"/>
								<path class="st6" d="M151,93.28c-0.08,0.34-1.15,0.99-0.15,0.91C150.93,93.85,151.72,93.56,151,93.28z"/>
								<polygon class="st6" points="139.1,91.71 139.3,91.69 139.27,89.65 								"/>
								<path class="st6" d="M128.62,96.58c0.94,0.49,0.22-1.26,1.07-0.65c0.22-0.48-0.69-0.5-0.47-0.91
									C128.66,95.53,128.36,95.24,128.62,96.58z"/>
								<path class="st6" d="M129.22,95.02c0.09-0.08,0.19-0.18,0.29-0.31C129.34,94.84,129.27,94.93,129.22,95.02z"/>
								<polygon class="st6" points="10.87,86.28 10.27,85.85 10.65,86.54 								"/>
								<path class="st6" d="M9.71,87.79l-0.14-1.3l-0.36,1.17C9.35,87.61,9.61,87.5,9.71,87.79z"/>
								<path class="st6" d="M91.92,98.17l0.05-0.31c-0.09-0.34-0.23-0.36-0.52-0.42L91.92,98.17z"/>
								<polygon class="st6" points="83.76,97.2 83.9,97.22 83.64,96.05 								"/>
								<path class="st6" d="M76.91,98.69c0.28,0.05,0.61-0.21,0.89-0.16C77.19,98.74,76.84,97.23,76.91,98.69z"/>
							</g>
						</g>
					</g>
				</g>
			</g>
			<g class="st5">
				<g>
					<g>
						<g>
							<g>
								<path class="st6" d="M101.88,185.22c-0.07,0.27,0.76,0.17,0.92,0.21C102.61,184.98,101.67,185.23,101.88,185.22z"/>
								<polygon class="st6" points="99.98,180.78 100.32,180.86 99.49,180.2 								"/>
								<path class="st6" d="M100,176.63c-1.43,0.39,0.23,1.5-0.28,2.24l-0.33,0.12l1.15,0.33C100.36,178.43,99.6,177.26,100,176.63
									z"/>
								<path class="st6" d="M103.09,174.42c-0.56,0.14-0.48-0.48-0.17,0.52c0.06-0.05,0.1-0.06,0.14-0.09
									C103.04,174.75,103.05,174.63,103.09,174.42z"/>
								<path class="st6" d="M103.05,174.84C103.09,175.28,103.52,174.55,103.05,174.84L103.05,174.84z"/>
								<path class="st6" d="M102.73,172.82l0.5,0.58c0.33-0.12,0.4-0.63,0.64-0.44C103.6,172.36,103.27,172.49,102.73,172.82z"/>
								<path class="st6" d="M101.69,172.28l0.21,0.3C102.04,172.52,102.09,172.44,101.69,172.28z"/>
								<path class="st6" d="M102.34,173.21l-0.44-0.63c-0.23,0.08-0.69,0.09,0.16,0.29C101.64,172.81,102.05,172.94,102.34,173.21z
									"/>
								<path class="st6" d="M102.13,173.56c-0.31,0.32-0.51,0.74-1,0.16C101.32,174.83,102.33,174.67,102.13,173.56z"/>
								<path class="st6" d="M98.52,176.42l-0.42,0.43l0.48,0.37C98.34,177.04,98.97,176.39,98.52,176.42z"/>
								<path class="st6" d="M103.47,169.24c-0.3-0.04-0.81,0.19-1.2,0.24l0.35,0.43C102.83,169.68,103.02,169.27,103.47,169.24z"/>
								<path class="st6" d="M102.27,169.47l-0.52-0.64C101.69,169.4,101.94,169.51,102.27,169.47z"/>
								<polygon class="st6" points="100.11,172.17 101.2,173.22 100.09,171.97 								"/>
								<polygon class="st6" points="103.51,166.81 104.21,167.17 103.15,166.53 								"/>
								<path class="st6" d="M103.39,165.2c0.58,0.27,0.99-0.37,1.34-0.08c-0.1-0.44-0.6-0.81-1.05-1.15
									C103.93,164.32,103.86,164.7,103.39,165.2z"/>
								<path class="st6" d="M103.02,163.4c0.14,0.18,0.39,0.36,0.66,0.57C103.54,163.77,103.35,163.59,103.02,163.4z"/>
								<path class="st6" d="M101.9,167.75c0.18-0.05,0.66-0.14,0.87-0.5l-0.85,0.25C101.91,167.58,101.91,167.67,101.9,167.75z"/>
								<path class="st6" d="M101.89,167.51l0.03-0.01c0.02-0.27,0.04-0.46,0.05-0.54C101.96,167.03,101.93,167.2,101.89,167.51z"/>
								<path class="st6" d="M101.9,167.82c0-0.02,0-0.04,0-0.06C101.82,167.78,101.79,167.79,101.9,167.82z"/>
								<path class="st6" d="M100.88,170.51c-0.48-0.37-0.99-1.15-1.72-0.4C99.75,170.38,100.16,169.94,100.88,170.51z"/>
								<path class="st6" d="M100.83,168.13l-0.2,0.68c0.23-0.01,0.55-0.14,0.79,0.05L100.83,168.13z"/>
								<polygon class="st6" points="100.56,167.8 100.83,168.13 100.9,167.88 								"/>
								<path class="st6" d="M102.22,164.56c-0.37-0.29-0.4-0.61-0.46-0.97c-0.17,0.39-0.26,0.79-0.26,1.17
									C101.77,164.8,102.25,164.97,102.22,164.56z"/>
								<path class="st6" d="M101.99,165.99c-0.02-0.02-0.03-0.05-0.05-0.06C101.86,165.97,101.84,166,101.99,165.99z"/>
								<path class="st6" d="M101.77,160.03c-0.05,0.02-0.11,0.04-0.16,0.06c0.05,0,0.1,0.01,0.15,0.01L101.77,160.03z"/>
								<path class="st6" d="M101.34,164.81c-0.17,0.29,0.04,0.46,0.31,0.63c-0.09-0.22-0.14-0.45-0.15-0.69
									C101.38,164.73,101.3,164.72,101.34,164.81z"/>
								<path class="st6" d="M102.62,162.41c-0.18,0.15-0.33,0.32-0.47,0.5C102.42,162.76,102.85,162.46,102.62,162.41z"/>
								<path class="st6" d="M102.17,165.83c0.01,0.01,0.03,0.03,0.04,0.04C102.39,165.78,102.3,165.79,102.17,165.83z"/>
								<path class="st6" d="M102.17,165.83c-0.12-0.15-0.33-0.27-0.52-0.39c0.07,0.18,0.16,0.34,0.28,0.48
									C102,165.89,102.09,165.86,102.17,165.83z"/>
								<path class="st6" d="M96.28,158.96c0.79,0.05,1.52,0.82,0.67,1.47c0.59,0.65,3.2,0.22,4.66-0.34
									c-0.35-0.02-0.67-0.02-1.13-0.69c-0.43,0.23-1.01,1.48-1.73,0.92c-0.41-0.88,0.28-0.72,0.7-1.15
									c-0.99,0.37-1.44-1.13-2.89-0.93l0.51,0.78C96.85,159.02,96.49,158.74,96.28,158.96z"/>
								<path class="st6" d="M101.53,161.36l0.1,0.27c0.14-0.31,0.45-0.54,1.07-0.95c-0.39-0.46-0.68-0.55-0.94-0.58l-0.11,1.35
									L101.53,161.36z"/>
								<path class="st6" d="M101.63,162.87c-0.86-0.21-1.23-0.87-2.16-0.47c0.06,0.81,0.72,0.56,1.09,1.05
									c-0.21-1.3,0.48,0.37,0.97-0.57c0.15,0.26,0.19,0.49,0.23,0.7c0.1-0.23,0.23-0.46,0.39-0.67c-0.02,0.01-0.03,0.02-0.05,0.03
									v0.01c-0.01,0-0.01,0-0.01,0c-0.11,0.06-0.17,0.07-0.11,0.01c-0.01,0-0.01-0.02-0.02-0.03
									C101.84,162.92,101.74,162.9,101.63,162.87c0.18-0.38,0.23-0.06,0.33,0.06c0.04,0,0.08,0.01,0.13,0.02h0.01l-0.47-1.3
									C101.51,161.91,101.53,162.26,101.63,162.87z"/>
								<path class="st6" d="M97.31,169.41c0.08-0.04,0.14-0.04,0.2-0.04C97.4,169.29,97.33,169.25,97.31,169.41z"/>
								<path class="st6" d="M97.83,168.88c0.12,0.09,0.47,0.17,0.38,0.48c-0.26,0.27-0.41,0-0.7,0.01
									c0.23,0.19,0.62,0.65,1.04,0.07l-0.12-0.09c0.3-0.52,1.37-1.2,1.49-1.11C99.14,168.39,98.59,168.53,97.83,168.88z"/>
								<path class="st6" d="M99.51,165.84l-0.42-1.09l-0.75,0.55l0.45-0.03C98.61,165.89,99.17,165.76,99.51,165.84z"/>
								<polygon class="st6" points="102.19,159.91 103.1,160.05 101.82,159.43 								"/>
								<polygon class="st6" points="102.09,158.5 102.88,158.55 102.4,158.18 								"/>
								<path class="st6" d="M92.26,78.91l-0.22-0.32C92.11,78.74,92.18,78.84,92.26,78.91z"/>
								<path class="st6" d="M92.21,81.22l0.39,0.06C92.39,81.17,92.23,81.12,92.21,81.22z"/>
								<path class="st6" d="M102,123.86c0.74-0.46,1.89-0.98,1-0.93l-0.87,0.14C102.28,123.4,102.18,123.65,102,123.86z"/>
								<path class="st6" d="M96.82,100.14c-0.08,0.04-0.17,0.09-0.26,0.14c0.3,0.11,0.57,0.22,0.83,0.31
									C97.2,100.45,97.01,100.3,96.82,100.14z"/>
								<path class="st6" d="M93.22,99.81l0.56-0.61C93.59,99.33,93.4,99.53,93.22,99.81z"/>
								<path class="st6" d="M91.34,66.3l-0.88-0.37C90.47,66.51,90.91,66.25,91.34,66.3z"/>
								<path class="st6" d="M101.77,144.05c0.34-0.4,0.48-0.72,0.52-1C101.79,143.54,101.04,143.93,101.77,144.05z"/>
								<path class="st6" d="M101.47,79.82c-0.16-0.2-0.33-0.28-0.53-0.27C101.09,79.75,101.26,79.86,101.47,79.82z"/>
								<path class="st6" d="M102.29,141.9c-0.09,0.07-0.13,0.14-0.2,0.21c0.15,0.29,0.26,0.59,0.21,0.95
									C102.66,142.7,102.89,142.29,102.29,141.9z"/>
								<path class="st6" d="M92.06,20.57c0.04-0.03,0.06-0.07,0.1-0.1C92.05,20.45,92.04,20.5,92.06,20.57z"/>
								<path class="st6" d="M100.82,7.24c0.05,0.13,0.05,0.35,0.07,0.55C100.95,7.69,100.94,7.53,100.82,7.24z"/>
								<path class="st6" d="M102.46,152.82C102.52,153.12,102.56,152.87,102.46,152.82L102.46,152.82z"/>
								<path class="st6" d="M99.03,154.28c-0.1-0.06-0.22-0.11-0.42-0.12C98.82,154.18,98.95,154.23,99.03,154.28z"/>
								<path class="st6" d="M96.89,138.92c0-0.01,0-0.02,0-0.03C96.72,138.98,96.75,138.96,96.89,138.92z"/>
								<path class="st6" d="M102.07,153.27c0.11-0.11,0.2-0.24,0.26-0.38C102.26,152.95,102.18,153.07,102.07,153.27z"/>
								<path class="st6" d="M102.48,153.21c-0.04,0.1-0.06,0.18-0.08,0.26C102.54,153.51,102.63,153.48,102.48,153.21z"/>
								<path class="st6" d="M102.42,152.41c0.01,0.17-0.03,0.33-0.09,0.48c0.06-0.06,0.11-0.08,0.14-0.07
									C102.45,152.74,102.43,152.61,102.42,152.41z"/>
								<path class="st6" d="M94.39,45.07c0.03-0.02,0.04-0.04,0.08-0.06C94.11,44.7,94.17,44.84,94.39,45.07z"/>
								<path class="st6" d="M92.99,116.07c0.01,0.01,0.03,0.02,0.04,0.03c0.01-0.01,0.02-0.03,0.03-0.04L92.99,116.07z"/>
								<path class="st6" d="M92.34,115c1.08,0.46,0.95,0.72,0.72,1.06l2.5-0.36L92.34,115z"/>
								<path class="st6" d="M92.01,73.38l-0.78,0.75c-1.28-0.91-0.84-1.57-1.94-0.86c2.72,0.11,0.28,2.93,2.99,3.04l-0.57,0.5
									c0.03-0.14-0.13-0.17-0.11-0.31c-1.3,0.97,1.96,0.72,1.58,1.96c-0.21,0.43-0.6,0.74-0.92,0.44l0.67,0.97
									c-0.05,0.28-0.52,0.21-0.47-0.07l0.22,1.48l-0.08-0.01c0.43,0.21,1.08,0.69,1.37,0.92c-0.39,0.38-0.29-0.19-0.63-0.09
									L94,82.92c-0.7,0.33-1.39-0.34-1.29-0.91c-2.71,0.76,0.68,0.68-0.9,2.33l-0.34-0.77c-1.54,0.5-0.98,1.1-1.94,1.97
									c0.5-0.21,2.42-1.75,3.1-0.86c-0.21,0.25-0.3,0.58,0.24,1.06c-0.97,0-0.73,0.47-0.67,1.06l-1.28-0.04
									c0.37,0.63,1.02,0.58,1.6,0.95c-0.13,0.7-1.12,0.85-1.95,1.02c-0.2,1.13,1.59-0.78,1.83,0.56c-0.49,0.94,0.03,1.6,0.8,2.72
									c-0.44,0.66-0.78-0.11-1.15,0.12l1.02,0.58c-0.02,0.14-0.34,0.1-0.5,0.07c0.4,0.49,1.28,0.04,1.63,0.81
									c1.41,0.21-2.06,1.58-0.46,2.54c-0.36,0.24-0.78-0.11-1.28-0.04c1.05,1.31,0.76,1.12,2.18,2.2l-0.84,0.92
									c0.96-0.67,2.1,0.19,3.03,0.94c0.46-0.24,0.87-0.44,1.06-0.58l0.69,1.2c-0.21,0.15-0.65,0.02-1.18-0.17
									c0.11,0.08,0.21,0.16,0.31,0.22c-0.47,0.43-1.21,0.21-1.93-0.1c0.25-0.15,0.52-0.29,0.79-0.43
									c-0.78-0.3-1.64-0.57-2.39-0.51c0.15,0.08,0.27,0.23,0.35,0.39c-0.21-0.08-0.4-0.13-0.53-0.09
									c-0.13,0.04,0.15,0.17,0.47,0.36l-1.43,0.27l0.57,0.07l-0.89,1.57c1.44,1.13,3.55,2.1,4.14,3.89
									c-1.05-0.44-1.71-0.1-2.95-0.12c1.31-0.49-0.56-1.38-0.29-2.31c-0.14,0.48-0.73,0.38-0.93,0.25l1.19,1.65
									c-1.01-0.04-0.76,0.35-1.18,0.78c2-0.33,1.33,1.23,1.95,1.9c-0.67,0.04-1.36-0.12-1.2-0.94c-1.51,0.9,2.35,1.17,1.07,2.06
									c-0.02-0.2,0.09-0.31-0.25-0.39c0.6,0.47,0.12,1.61-0.46,1.34l-0.01-0.2c-0.24,1.33-0.01,4.04,1.69,4.24
									c-0.22,0.01-2.05-0.17-2.39-0.25l5.72,2.37c-1.46-0.21-4.94,0.59-5.77-0.51c-0.21,0.32-0.45,0.71,0.06,1.37
									c0.21-0.22,2.11-0.54,2.25-0.24c-1.63,0.81-0.87,0.56-2.26,1.56c0.31-0.32,2.6,0.04,2.53,0.55
									c-0.34-0.08-2.26,0.04-2.5-0.14l2.25,1.27c-0.41-0.32-1.91-0.06-2.54,0.23c0.44-0.13-0.04,1.1,0.18,1.44l0.52-0.54
									c-0.34,1.44,3.16,1.42,3.04,2.84c-0.47-0.17-2.86-0.43-3.14,0.3c1.15,0.33,5.54,1.47,6.43,2.73l-0.66,0.24l0.75,0.97
									c-1.73-0.6-5.38-2.29-6.8-3.22c-0.52,0.54-0.78,0.15-0.72,0.95c-0.62,0.28-0.94-0.44-0.97-0.68l-0.4,1.87
									c1.35-0.08,1.35,1.43,2.47,1.36l-1.39-2.04c1.34-0.08,3.82,1.18,3.58,2.5c-0.54,0.34-2.39-0.25-2.84-0.22
									c0.46,0.17,0.88,1.26,0.56,1.38l-0.72-0.56c-0.51,0.74,1.78,1.21,0.5,2.09c-0.09,0.31-1.73,0.92-0.94,0.97
									c1.53-0.5,6.28-0.6,7.43-0.26c-0.1,0.11-1.47,1.61-2.22,1.96c-1.2,0.5-2.87-0.76-3.9-0.33c0.37,0.02,0.82,0.3,0.97,0.41
									c-0.31,0.32-1.14-0.13-0.97,0.57c1.36,0.12-0.12,1.42,1.15,0.33c0.39,0.68-0.28,0.73-0.22,1.53c0.88-0.26,3,0.72,3.39,1.41
									c-0.35-0.04-0.8,0.11-1,0.19c-0.12,1.4-0.74,2.16-0.75,3.46c-0.33,0.12-0.73,0.75-1.32,0.48c0.24,0.19,0.7,0.36,0.74,0.76
									c-1.18,0.78-0.18-0.9-1.6-0.3c0.79,0.05,1.09,1.04,1.59,1.62c1.22-0.18,0.23-1.33-0.26-1.9c1.69,0,3.46,1,4.24,2.37
									c0.42,1.09-1.09,0.47-0.85,0.66c-0.29,2.04,2.95,1.74,1.73,3.43c-1.08,0.67-2.14,0.03-2.91,0.18
									c-0.41-0.89,0.68-1.36,0.64-1.96l-0.51,0.74c-0.36-0.28-0.63-0.87-0.32-1.19c-0.97,0.56-0.19,3.45-1.08,5.02
									c0.36,0.28,0.73,0.76,1.17,0.53l-0.15-0.5c0.87-0.46,1.2,0.94,1.6,0.31c0.61,0.67,1.57,1.42,1.08,2.36l-1.23,0.18
									c0.36-0.02,0.73-0.62,0.36-0.88c0.54,0.39-1.66,1.44-0.05,1.87l0.85-0.66c0.62,0.67,1.92,1.5,1.53,2.33
									c1.21-0.38-0.14-0.19,1.28-0.78c-1.76,0.51,0.07-2.13-1.78-1.31c1.64-0.61,0.7-1.05,2.1-1.85c-0.4,0.02-0.77,0.28-0.57-0.42
									c-0.12-0.03-0.27-0.11-0.36-0.15c0.01-0.02,0.02-0.03,0.03-0.05c-0.02,0.01-0.03,0.02-0.05,0.04
									c-0.06-0.03-0.07-0.03-0.02,0.01c-0.18,0.17-0.39,0.3-0.62,0.36c-0.93-0.35-0.9-1.46-1.38-1.84
									c0.19-0.42,0.46,0.17,0.9-0.05l-0.72-0.56c0.9-0.06,1.49-1.1,2.02-0.13l0.04-0.88c0.5-0.52,0.7-1.23,0.33-1.67
									c0.19-0.42-0.99-1.05-0.29-0.69l-0.56-1.38l0.22-0.01c0.11-1.36-1.49-2.81,0.13-4.36c-0.23-0.46-0.5-0.93-0.25-1.7
									l0.78-0.15c-0.27-0.59,0.78-1.77-0.03-2.02c2.09-0.64,0.46-2.86,0.83-3.9l-1.01-0.04c0.06-0.71-0.23-1.4-0.64-2.28
									l-0.9,0.05c-0.74-0.76,0.64-1.96,0.55-3.17c0.34,0.08,0.25,0.39,0.05,0.61c2.03-1.44-1.47-3.04,0-4.35
									c-0.33-0.33-0.21-0.56,0.01-0.79c0,0.03,0.02,0.06,0.05,0.08c0.01-0.03,0.01-0.08,0.01-0.13c0.15-0.14,0.33-0.29,0.48-0.45
									c-0.22,0.14-0.4,0.27-0.48,0.38c-0.02-0.25-0.13-0.63-0.35-1.01l0.96-0.16c-0.01-0.03-0.01-0.05-0.03-0.09
									c0.36-0.37-0.46-0.29-1.18-0.1c-0.16-0.19-0.35-0.36-0.58-0.49c1.55-0.3-0.52-0.98,1.13-1.39
									c-0.81-0.25-0.61-1.88-2.31-2.08c0.22-0.01,0.33-0.12,0.34,0.08c0.19-0.42,0.39-0.83-0.09-1.21l1.22-0.18l-1.65-0.91
									c0.75-0.55,1.18-0.78,2.12-0.23c-1.45-1.33-0.55-1.08-1.98-2.2l0.79,0.05c-0.03-0.4-1.09-1.05-0.44-1.29
									c1.5-0.9,0.21-4.46,1.61-6.77c-2.33,0.45,1.04-1.08-0.76-1.17c0.55-0.13,0.86-0.46,1.34-0.08
									c-0.54-1.18,0.87-1.77-0.65-2.59c0.55-0.14,0.81,0.25,1.14,0.13c-0.12-0.09-0.48-0.38-0.15-0.5s0.46,0.17,0.7,0.36
									c-0.09-1.21-1.79-1.33-3.39-1.42c0.75-0.61,0.65-0.92-0.4-1.36c0.52-0.21,1.07-0.57,1.25,0.18
									c0.08-0.42,0.76-2.58-0.51-2.62c0.32-0.13,0.09-0.59-0.05-0.7c0.08-0.95,0.19-1.03,0.07-1.96l-0.21,0.26
									c-1.54-0.37-0.34-0.77-0.53-1.52l0.16,0.02c1.11-1.72-0.53-0.74,0.74-2.44l-0.96,0.09c-2.06-0.16,1.22-1.5,0.43-2.48
									L98.8,88.8c-0.71-0.54,2.81-1.5,3.06-2.04c0.18-0.12,0.29,0.19,0.42,0.35c1.22-1.41-1.26-0.18-1.55-1.23
									c0.68-0.19,1.72,0.25,1.85-0.46c0.55-0.35-2.2-2.05-0.9-3.02c-0.52,0.21-1.04,0.42-1.44-0.06c-0.19-0.75,1.97-2.02,0.33-2.7
									c0.14-0.1,0.28-0.13,0.41-0.14c-0.42-0.57-0.71-1.86-1.6-2.21c3.31-0.53-1.61-3.56,1.44-3.55l-0.16-1.76l0.31,0.05
									c0.2-1.13-0.53-1.52-1.26-1.92c0.21-0.26,0.49-0.07,0.65-0.05c0.62-1.64,0.49-1.81-1.04-3.19l0.99-0.14
									c-0.58-0.37,1.55-2.38,0.4-3.99c0.11,0.02,0.3,0.05,0.44,0.18c-1.16-1.81,2.75-4.34-0.86-5.01l-0.89-1.2
									c-0.28,1.55-1.57-0.23-2.17,0.41c-0.21-0.61,1.09-1.58,1.27-0.83l-0.18,0.12c1.88,0.28,0.67-1.93,1.95-1.88
									c-0.09-3.05,0.95-6.02,1.03-8.88l-1.46,0.33l0.08-1c0.34-0.26,1.14-0.35,1.08,0.36c0.83-0.37-0.69-1.19-1.01-1.21
									c0.59-1.39,1.71,0.54,1.74,0.12l-0.11-0.58l-0.17,0.13c-0.6-0.47-1.23-0.51-1.16-1.37c0.29-0.54,0.9-0.28,0.96-0.49
									c0.1,0,0.15-0.07,0.04-0.33l0.12-1.26l-1.16,0.5c-0.57-0.56,0.06-1.18-1.25-0.6c2.02-0.85,0.72-4.68,1.35-5.2
									c-0.84-0.78-0.83-1.55-0.73-2.5c-0.24,0.24-1.54,0.38-1.38-0.44c2.68,0.3,1.16-1.5,3.09-2.17c-1.28,0.59-0.32-2.34-2.13-1.4
									c0.22-0.69,1-0.04,1.63-0.56c-1.04-1.63,0.67-3.6,0.32-5.61c-0.35-0.03-0.89,0.31-1.41-0.13l1.76-1.07
									c-0.17-0.4-2.03-0.37-0.81-1.09c-0.3,0.1-0.74,0.26-0.85-0.01c1.71-3.95-1.4-8.08,1.82-12.09
									c-0.68,0.54-0.75,0.18-0.77-0.23c-0.16,0.27-0.87-0.01-1.35,0.05l1.32-1.68c-1.32-0.31-0.09-1.8-1.35-1.98l0.23,0.53
									c-1.49-0.71-3.32,0.99-5.23,0.89c1.7,0.79-2.51,2.09-0.08,3.39c-0.39,0.29-0.62-0.24-1.06-0.09
									c0.82,0.33,0.99,0.73,0.62,1.46l-0.2-0.08c0.2,2.07-0.61,2.96-1.15,5.29l0.95-0.17c-0.13,0.5-0.42,0.61-0.66,0.84
									c1.44,0.57,0.08-1.4,1.66-0.88c-1.93,0.66-0.03,3.53-2.22,3.98c-0.01,0.77,1.1-0.23,1.08,0.54l-0.59,0.2l0.76,0.19
									c-0.13,0.5-0.87,0.76-1.37,0.78c0.06-0.12-0.14-0.35-0.18-0.48c-0.7,0.65,0.24,1.84,0.01,2.07l0.37-0.74
									c0.55,2.1-0.22,4.66,0.98,6.69l0.45-0.15c0.83,1.55-0.49,1.24-0.11,2.94l-0.11-0.06c0.45,0.34,0.67,0.79,0.62,1.26
									c-0.52-0.43-1.02,0.81-1.6,0.24c0.89,1.68,0.7,0.83,2.36,1.94l-0.74,0.26c0.67,0.38,1.02,0.41,1.22,1.26
									c-0.64-0.7-1.13,0.54-1.97-0.24c-1.62,1.78,1.64,2.65-0.73,3.46c2.05,0.82,1.14-1.54,1.58-1.08
									c0.67-0.38,1.53,0.68,1.33,1.24c-0.05,0.57-2.63,0.97-2.59,2.4c0.01-0.14-0.15-0.15-0.14-0.29
									c-0.52,0.54,0.71,1.05-0.14,1.71c1.24,0.37-0.07,0.85,1.51,0.96L94,43.09c0.41,0.74,2.27,1.44,1.37,2.67
									c-0.32-0.1-0.74-0.46-0.97-0.71c-0.47,0.36,0.31,0.69-0.17,1.06c-1.58-0.11-0.34-1.6-1.55-2.39
									c-0.67,0.39,1.15,1.51-0.57,1.11c2.18,0.58-0.28,1.41,1.39,2.38l-0.95-0.06c0.15,0.15,0.6,0.47,0.57,0.75l-1.23-0.51
									c1.05,0.79-0.92,1.51-0.35,2.27c-0.03-1.58,1.14-0.35,1.84-1.02c1.27,1.95-2.48,1.12-2.03,3.3
									c-0.13-0.29,0.57-1.11,1.01-0.65c-0.2,0.41-0.56,0.96-1.06,1.22c0.2,1.44,0.98-0.22,1.56,0.39
									c-1.16,0.49,0.47,0.71,0.84,1.34h-0.97c-0.62,1.64,2.01,0.44,1.26,1.92l-1.34-0.63L93,56.3l-1.1-0.16
									c0.81,0.84,0.6,1.1,0.3,1.92c0.68-0.19,1.75,0.11,1.78,0.84c-0.57,0.5-0.92-0.28-0.78,0.75c-0.6-0.23-1.36-0.49-0.47-0.94
									c-0.31-0.05-0.61-0.23-0.92-0.28c-0.66,0.53-0.15,1.34-0.14,1.72c0.04-0.14,0.09-0.32,0.23-0.4l1.34,1.5
									c-0.36,0.24-0.65,0.05-0.94-0.14c0.1,0.3,0.55,0.51,0.63,0.96c-0.78-0.12-1.59-0.09-1.96-0.72l0.87,1.43
									c-0.34,0.1-0.94,0.73-1.23,0.55c-0.46,0.79,1.52,1.94,0.91,2.99c0.15,0.05,0.3,0.16,0.41,0.39
									c-0.18,0.98-1.14,1.86-0.06,3.02l-1.41,0.66c0.32,0.91,1.77-0.9,2.3,0.63c0.45,1.08-1.2,0.4-1.59,0.78
									c0.71,0.54,2.15,1.47,1.01,2.46C91.91,73.94,92.12,73.69,92.01,73.38z M92.64,84.66c-0.2-0.22-0.83-0.65-0.26-0.81
									C93.49,84.09,92.96,84.28,92.64,84.66z M94.96,101.8c-0.32-0.16-0.16-0.41,0.2-0.7C95.24,101.31,95.21,101.54,94.96,101.8z
									 M101.68,149.55c-0.02-0.01-0.03-0.02-0.05-0.02C102.01,149.03,101.86,149.21,101.68,149.55z M101.26,150.56
									c0.13,0.1,0.27,0.09,0.4,0.05c-0.24-0.07-0.26-0.3-0.19-0.56C101.22,150.12,101.04,150.26,101.26,150.56z M100.88,41.88
									l-0.25,0.2C100.35,41.63,100.6,41.75,100.88,41.88z"/>
								<path class="st6" d="M93.64,99.85c0.16-0.06,0.34-0.08,0.52-0.09C94,99.67,93.82,99.67,93.64,99.85z"/>
								<path class="st6" d="M91.51,66.37c0.01-0.01,0-0.02,0.01-0.03c-0.06-0.02-0.12-0.03-0.17-0.03L91.51,66.37z"/>
								<path class="st6" d="M93.08,134.88c0.14-0.21,0.32-0.32,0.5-0.4C93.34,134.47,93.14,134.56,93.08,134.88z"/>
								<path class="st6" d="M102.9,155.92l-0.25-0.65c0.05,0.31-0.16,0.43-0.32,0.58C102.56,155.84,102.88,155.72,102.9,155.92z"/>
								<path class="st6" d="M96.93,161.55c0.12,0.09,0.01,0.2,0.13,0.29l0.45-0.03C97.48,161.41,97.12,161.13,96.93,161.55z"/>
								<path class="st6" d="M99.69,156.52c-0.81,0.05-0.54,0.46-0.39,0.91c0-0.03-0.01-0.05,0-0.08
									C100.44,157.49,100.07,157,99.69,156.52z"/>
								<path class="st6" d="M99.34,157.54c0.04,0.14,0.06,0.28,0.02,0.42C99.81,158.01,99.45,157.79,99.34,157.54z"/>
								<path class="st6" d="M101.8,151.84c-0.21,0.22,1.04,0.14,0.71,0.26C103.54,152.34,101.26,150.66,101.8,151.84z"/>
								<polygon class="st6" points="97.02,156.89 98.02,156.73 97.21,156.47 								"/>
								<path class="st6" d="M97.76,153.3l-0.28,0.73c0.17-0.01,0.27,0.08,0.34,0.19C97.85,153.78,98.05,153.29,97.76,153.3z"/>
								<path class="st6" d="M97.82,154.22c-0.02,0.23,0,0.45,0.17,0.58C97.97,154.68,97.94,154.41,97.82,154.22z"/>
								<polygon class="st6" points="96.72,155.9 96.93,155.68 97,155.17 								"/>
								<path class="st6" d="M97.95,145.5l-0.29-0.79c-0.34-0.08-0.55,0.14-0.42,0.43C97.48,145.33,97.62,145.62,97.95,145.5z"/>
								<path class="st6" d="M95.2,147.9c0.21-0.21,0.43-0.23,0.76-0.35l-1.24-0.02L95.2,147.9z"/>
								<path class="st6" d="M94.91,145.59c-0.34-0.08-0.99-1.15-0.91-0.15C94.34,145.52,94.63,146.32,94.91,145.59z"/>
								<polygon class="st6" points="96.49,133.66 96.5,133.86 98.54,133.83 								"/>
								<path class="st6" d="M91.61,123.14c-0.49,0.94,1.26,0.22,0.65,1.07c0.48,0.22,0.5-0.69,0.91-0.47
									C92.67,123.18,92.95,122.88,91.61,123.14z"/>
								<path class="st6" d="M93.17,123.74c0.08,0.09,0.18,0.19,0.31,0.29C93.36,123.87,93.26,123.79,93.17,123.74z"/>
								<polygon class="st6" points="101.91,5.03 102.34,4.43 101.65,4.82 								"/>
								<path class="st6" d="M100.4,3.88l1.3-0.14l-1.17-0.36C100.58,3.51,100.7,3.77,100.4,3.88z"/>
								<path class="st6" d="M90.02,86.33l0.31,0.05c0.34-0.09,0.36-0.23,0.42-0.52L90.02,86.33z"/>
								<polygon class="st6" points="90.99,78.15 90.97,78.29 92.14,78.03 								"/>
								<path class="st6" d="M89.5,71.28c-0.05,0.28,0.21,0.61,0.16,0.89C89.45,71.56,90.96,71.2,89.5,71.28z"/>
							</g>
						</g>
					</g>
				</g>
			</g>
		</g>
	</g>
	<g>
		<g>
			<path id="l" class="st7" d="M336.1,29.37c0.01,5.11,0.09,107.24,0.09,112.35c-2.81,0-7.79,0-10.61,0
				c0-5.09-0.09-107.22-0.09-112.33C328.33,29.39,333.3,29.37,336.1,29.37"/>
			<path id="b" class="st8" d="M277.2,141.72c-21.55-0.02-39-17.51-38.98-39.1l0.08-73.25l10.42,0.02l-0.06,73.25
				c-0.02,15.83,12.77,28.63,28.55,28.65c15.79,0.01,28.63-12.76,28.64-28.59c0.01-15.76-12.76-28.58-28.58-28.6l-21.98-0.03
				l0.01-10.43l21.97,0.02c21.57,0.03,39.05,17.53,39.03,39.06C316.27,124.28,298.75,141.73,277.2,141.72"/>
			<path id="a" class="st9" d="M412.21,74.91c-5.03-5.04-11.32-8.52-18.12-10.23c-3.1-0.78-6.3-1.23-9.56-1.23
				c-10.79,0-20.61,4.39-27.68,11.46c-7.35,7.33-11.47,17.29-11.46,27.67c-0.01,10.38,4.11,20.34,11.46,27.68
				c7.34,7.35,17.29,11.47,27.68,11.46c10.2,0,19.51-3.96,26.46-10.36v7.21c0.06,0.56,0.38,1.15,1.25,1.17h10.17
				c0.89-0.02,1.2-0.62,1.26-1.2v-35.96C423.67,91.8,419.28,81.98,412.21,74.91z M403.25,121.3L403.25,121.3
				c-4.96,4.97-11.69,7.76-18.71,7.75c-7.02,0.01-13.76-2.78-18.71-7.75c-4.97-4.96-7.76-11.69-7.75-18.71
				c-0.01-7.02,2.78-13.76,7.75-18.71c4.96-4.97,11.69-7.76,18.71-7.75c7.33,0,13.9,2.95,18.71,7.75
				c4.97,4.96,7.76,11.69,7.75,18.71C411,109.91,408.05,116.49,403.25,121.3z"/>
		</g>
		<g>
			<path id="path4326" class="st10" d="M504.28,62.6c-21.55,0.02-39,17.51-38.98,39.1l0.08,73.25l10.42-0.02l-0.06-73.25
				c-0.02-15.83,12.77-28.63,28.55-28.65c15.79-0.01,28.63,12.76,28.64,28.59c0.01,15.76-12.76,28.58-28.58,28.6l-21.98,0.03
				l0.01,10.44l21.97-0.02c21.57-0.03,39.05-17.53,39.03-39.06C543.36,80.05,525.83,62.6,504.28,62.6"/>
			<path id="path4322" class="st9" d="M563.25,29.37c0.01,5.03,0.1,105.62,0.1,110.65c-2.92,0-8.08,0-11.01,0
				c0-5.01-0.09-105.6-0.09-110.63C555.18,29.39,560.34,29.37,563.25,29.37"/>
			<path id="path4330" class="st10" d="M611.99,62.71c-21.89,0.02-39.04,17.19-39.02,39.07c0.02,21.89,17.2,39.01,39.09,38.98
				c21.9-0.02,39.02-17.16,39-39.05C651.03,79.82,633.88,62.68,611.99,62.71 M612.05,130.35c-16.02,0-28.6-12.54-28.62-28.56
				c-0.02-16.06,12.54-28.62,28.56-28.64c16.03-0.02,28.62,12.54,28.63,28.59C640.64,117.75,628.07,130.31,612.05,130.35"/>
			<path id="path4338" class="st10" d="M802.76,115.81c-4.84,8.7-14.02,14.53-24.91,14.53c-15.39,0.02-27.56-11.54-28.54-26.66
				l57.02-0.06h10.44c0.03-0.65,0.08-1.28,0.08-1.9c-0.03-21.9-17.17-39.04-39.07-39.02c-21.88,0.02-39.02,17.19-38.99,39.1
				c0.02,21.87,17.18,38.99,39.07,38.98c15.36-0.02,28.35-8.48,34.73-21.08L802.76,115.81z M777.79,73.15
				c13.35-0.03,24.3,8.67,27.57,20.83l-55.11,0.06C753.53,81.88,764.44,73.15,777.79,73.15"/>
			<g>
				<path class="st11" d="M667.82,44.77v21.09h22.63c0.01,2.09,0.02,4.17,0.03,6.26c-7.55,0.01-15.1,0.02-22.65,0.03
					c0,15.63,0,31.26,0,46.89c0,9.25,3.15,15.06,11.66,15.06c4.09,0,6.99-0.49,9.01-1.14l0.96,5.57c-2.56,0.99-6.15,1.75-10.96,1.75
					c-5.78,0-10.59-1.67-13.68-5.16c-3.6-3.83-4.83-9.94-4.83-17.38V71.69c0-1.95,0-3.9,0-5.84c0.04-6.95,0.08-13.91,0.12-20.86
					C662.67,44.93,665.25,44.85,667.82,44.77z"/>
			</g>
			<g>
				<path class="st11" d="M707.23,44.77v21.09h22.63c0.01,2.09,0.02,4.17,0.03,6.26c-7.55,0.01-15.1,0.02-22.65,0.03
					c0,15.63,0,31.26,0,46.89c0,9.25,3.15,15.06,11.66,15.06c4.09,0,6.99-0.49,9.01-1.14l0.96,5.57c-2.56,0.99-6.15,1.75-10.96,1.75
					c-5.78,0-10.59-1.67-13.68-5.16c-3.6-3.83-4.83-9.94-4.83-17.38V71.69c0-1.95,0-3.9,0-5.84c0.04-6.95,0.08-13.91,0.12-20.86
					C702.08,44.93,704.66,44.85,707.23,44.77z"/>
			</g>
			<path class="st12" d="M857.45,67.49c0.7-0.44,0.64-1.05,0.41-1.51l-4.97-7.81c-0.41-0.66-1.01-0.54-1.42-0.33
				c-7.41,4.56-25.71,20.35-25.71,47.64v32.21c0.05,0.51,0.33,1.05,1.13,1.07H836c0.78-0.02,1.06-0.54,1.12-1.05v-32.23
				C837.11,81.98,853.69,69.87,857.45,67.49L857.45,67.49z"/>
		</g>
	</g>
</g>
</svg>
