<svg id="图层_1" data-name="图层 1" xmlns="http://www.w3.org/2000/svg" viewBox="0 0 620.79666 147.08287"><defs><style>.cls-1,.cls-2,.cls-3,.cls-4,.cls-5,.cls-6{fill:#3e3a39;}.cls-1,.cls-2,.cls-4,.cls-5{stroke:#3e3a39;stroke-miterlimit:10;}.cls-1{stroke-linecap:round;}.cls-2{stroke-width:2px;}.cls-5{stroke-width:3px;}.cls-6{fill-rule:evenodd;}</style></defs><title>logo_text</title><path id="l" class="cls-1" d="M336.1,29.37c.01,5.11.09,107.24.09,112.35H325.58c0-5.09-.09-107.22-.09-112.33,2.84,0,7.81-.02,10.61-.02" transform="translate(-237.22 -28.36807)"/><path id="b" class="cls-2" d="M277.2,141.72a39.02883,39.02883,0,0,1-38.98-39.1l.08-73.25,10.42.02-.06,73.25a28.595,28.595,0,1,0,28.61-28.54l-21.98-.03.01-10.43,21.97.02a39.03,39.03,0,1,1-.07,78.06" transform="translate(-237.22 -28.36807)"/><path id="a" class="cls-3" d="M412.21,74.91a39.17183,39.17183,0,1,0-1.22,56.45v7.21a1.20182,1.20182,0,0,0,1.25,1.17h10.17a1.20917,1.20917,0,0,0,1.26-1.2V102.58A39.08059,39.08059,0,0,0,412.21,74.91Zm-8.96,46.39h0A26.45978,26.45978,0,1,1,411,102.59,26.37747,26.37747,0,0,1,403.25,121.3Z" transform="translate(-237.22 -28.36807)"/><path id="path4326" class="cls-4" d="M504.28,62.6a39.02886,39.02886,0,0,0-38.98,39.1l.08,73.25,10.42-.02-.06-73.25a28.595,28.595,0,1,1,28.61,28.54l-21.98.03.01,10.44,21.97-.02a39.035,39.035,0,1,0-.07-78.07" transform="translate(-237.22 -28.36807)"/><path id="path4322" class="cls-3" d="M563.25,29.37c.01,5.03.1,105.62.1,110.65H552.34c0-5.01-.09-105.6-.09-110.63,2.93,0,8.09009-.02,11.00006-.02" transform="translate(-237.22 -28.36807)"/><path id="path4330" class="cls-4" d="M611.99,62.71a39.025,39.025,0,1,0,39.07,39,38.64128,38.64128,0,0,0-39.07-39m.06,67.64a28.6,28.6,0,1,1,28.57-28.61,28.3128,28.3128,0,0,1-28.57,28.61" transform="translate(-237.22 -28.36807)"/><path id="path4338" class="cls-4" d="M802.76,115.81a28.61062,28.61062,0,0,1-53.44995-12.13l57.02-.06h10.44c.03-.65.08-1.28.08-1.9a38.74589,38.74589,0,1,0-4.26,17.98ZM777.79,73.15a28.1442,28.1442,0,0,1,27.57,20.83l-55.11.06a28.20273,28.20273,0,0,1,27.54-20.89" transform="translate(-237.22 -28.36807)"/><path class="cls-5" d="M667.82,44.77V65.86h22.63c.01,2.09.02,4.17.03,6.26l-22.65.03v46.89c0,9.25,3.15,15.06,11.66,15.06a29.76232,29.76232,0,0,0,9.01-1.14l.96,5.57a30.47725,30.47725,0,0,1-10.96,1.75c-5.78,0-10.59-1.67-13.68-5.16-3.6-3.83-4.83-9.94-4.83-17.38V65.85q.06-10.425.12-20.86C662.67,44.93,665.25,44.85,667.82,44.77Z" transform="translate(-237.22 -28.36807)"/><path class="cls-5" d="M707.23,44.77V65.86h22.63c.01,2.09.02,4.17.03,6.26l-22.65.03v46.89c0,9.25,3.15,15.06,11.66,15.06a29.76232,29.76232,0,0,0,9.01-1.14l.96,5.57a30.47731,30.47731,0,0,1-10.96,1.75c-5.78,0-10.59-1.67-13.68-5.16-3.6-3.83-4.83-9.94-4.83-17.38V65.85q.06-10.425.12-20.86C702.08,44.93,704.66,44.85,707.23,44.77Z" transform="translate(-237.22 -28.36807)"/><path class="cls-6" d="M857.45,67.49a1.06607,1.06607,0,0,0,.41-1.51l-4.97-7.81a.989.989,0,0,0-1.42-.33c-7.41,4.56-25.71,20.35-25.71,47.64v32.21a1.08327,1.08327,0,0,0,1.13,1.07H836a1.0781,1.0781,0,0,0,1.12-1.05V105.48a45.49838,45.49838,0,0,1,20.33-37.99Z" transform="translate(-237.22 -28.36807)"/></svg>